<svg width="60" height="60" viewBox="0 0 60 60" fill="none" xmlns="http://www.w3.org/2000/svg">
<path d="M30 58.125C45.533 58.125 58.125 45.533 58.125 30C58.125 14.467 45.533 1.875 30 1.875C14.467 1.875 1.875 14.467 1.875 30C1.875 45.533 14.467 58.125 30 58.125Z" fill="#00AFCA"/>
<path d="M53.1566 31.0313C52.5003 30.6563 51.7503 31.125 51.7503 31.7813C51.4691 36.375 43.4066 37.5938 39.5628 37.5938C35.7191 37.6875 27.469 36.2813 27.1878 31.7813C27.1878 31.125 26.4378 30.75 25.7815 31.0313C23.8128 32.0625 23.1566 34.0313 23.6253 36C24.4691 39.5625 28.8753 42.0938 32.6253 43.2188C32.344 43.875 32.2503 44.5313 32.1565 45.1875C32.0628 45.9375 33.1878 46.2188 33.7503 45.75C35.9066 44.1563 39.2816 43.5 42.0941 43.5C43.3128 43.5 43.3128 41.8125 42.0941 41.8125C39.5628 41.8125 36.8441 42.2813 34.5941 43.3125C35.4378 41.3438 37.4066 39.375 39.5628 39.2813H39.6565C44.1565 39.375 51.3753 37.7813 53.2503 33.5625C53.5315 34.3125 53.5315 35.1563 53.2503 35.9063C52.3128 38.9063 49.0315 40.125 45.9378 40.9688C44.8128 41.25 45.2815 42.9375 46.4065 42.5625C50.344 41.5313 53.4378 39.9375 55.0316 36.375C55.7816 34.5 55.0316 32.25 53.1566 31.0313ZM33.3753 41.625C30.2815 40.7813 27.9378 39.2813 26.0628 36.8438C25.3128 35.8125 25.0315 34.4063 25.6878 33.375C27.094 36.6563 31.6878 38.3438 35.8128 38.9063C34.8753 39.6563 34.0315 40.5938 33.3753 41.625Z" fill="#FFE62E"/>
<path d="M39.375 32.5313C43.3618 32.5313 46.5938 29.2993 46.5938 25.3125C46.5938 21.3257 43.3618 18.0938 39.375 18.0938C35.3882 18.0938 32.1562 21.3257 32.1562 25.3125C32.1562 29.2993 35.3882 32.5313 39.375 32.5313Z" fill="#FFE62E"/>
<path d="M39.375 17.1562C39.8437 17.1562 39.9375 16.875 39.9375 16.5938C39.9375 16.125 39.375 14.1562 39.375 14.1562C39.375 14.1562 38.8125 16.2188 38.8125 16.5938C38.8125 16.875 38.9062 17.1562 39.375 17.1562Z" fill="#FFE62E"/>
<path d="M42.4688 17.7187C42.8438 17.9062 43.125 17.7188 43.2188 17.4375C43.4062 17.0625 43.5938 14.9062 43.5938 14.9062C43.5938 14.9062 42.2813 16.5938 42.0938 16.9688C42.0938 17.25 42.0938 17.625 42.4688 17.7187ZM46.9688 28.4062C46.7812 28.7812 46.9688 29.0625 47.25 29.1562C47.625 29.3438 49.7812 29.5312 49.7812 29.5312C49.7812 29.5312 48.0938 28.2187 47.7188 28.0312C47.4375 28.0312 47.0625 28.0312 46.9688 28.4062ZM36.2813 32.9062C35.9063 32.7188 35.625 32.9063 35.5313 33.1875C35.3438 33.5625 35.1563 35.7188 35.1563 35.7188C35.1563 35.7188 36.4688 34.0313 36.6562 33.6563C36.6562 33.375 36.6563 33 36.2813 32.9062ZM31.7813 22.2188C31.9688 21.8438 31.7812 21.5625 31.5 21.4687C31.125 21.2812 28.9688 21.0938 28.9688 21.0938C28.9688 21.0938 30.6562 22.4062 31.0312 22.5938C31.3125 22.5938 31.6875 22.5938 31.7813 22.2188ZM45.1875 19.5C45.4688 19.7812 45.8438 19.6875 46.0312 19.5C46.3125 19.2187 47.3438 17.3438 47.3438 17.3438C47.3438 17.3438 45.4688 18.375 45.1875 18.6562C44.9063 18.9375 44.9063 19.2187 45.1875 19.5ZM45.1875 31.125C44.9063 31.4063 45 31.6875 45.1875 31.9688C45.4688 32.25 47.3438 33.2812 47.3438 33.2812C47.3438 33.2812 46.3125 31.4063 46.0312 31.125C45.75 30.8438 45.4688 30.8438 45.1875 31.125ZM33.5625 31.125C33.2812 30.8438 32.9063 30.9375 32.7188 31.125C32.4375 31.4063 31.4062 33.2812 31.4062 33.2812C31.4062 33.2812 33.2812 32.25 33.5625 31.9688C33.8438 31.6875 33.8438 31.4063 33.5625 31.125ZM33.5625 19.5C33.8438 19.2187 33.75 18.8437 33.5625 18.6562C33.2812 18.375 31.4062 17.3438 31.4062 17.3438C31.4062 17.3438 32.4375 19.2187 32.7188 19.5C33 19.7812 33.2812 19.7812 33.5625 19.5ZM46.9688 22.2188C47.1562 22.5938 47.4375 22.6875 47.7188 22.5C48.0938 22.3125 49.7812 21 49.7812 21C49.7812 21 47.625 21.2812 47.25 21.375C46.9688 21.5625 46.7812 21.75 46.9688 22.2188ZM42.4688 32.9062C42.0938 33.0938 42 33.375 42.1875 33.6563C42.375 34.0313 43.6875 35.7188 43.6875 35.7188C43.6875 35.7188 43.4063 33.5625 43.3125 33.1875C43.125 32.9063 42.9375 32.7188 42.4688 32.9062ZM31.7813 28.4062C31.5938 28.0312 31.3125 27.9375 31.0312 28.125C30.6562 28.3125 28.9688 29.625 28.9688 29.625C28.9688 29.625 31.125 29.3438 31.5 29.25C31.7812 29.0625 31.9688 28.875 31.7813 28.4062ZM36.2813 17.7187C36.6563 17.5312 36.75 17.25 36.5625 16.9688C36.375 16.5938 35.0625 14.9062 35.0625 14.9062C35.0625 14.9062 35.3438 16.9688 35.4375 17.4375C35.625 17.7188 35.8125 17.9062 36.2813 17.7187ZM40.9688 17.25C41.3438 17.3437 41.625 17.0625 41.625 16.7812C41.7188 16.4062 41.5312 14.25 41.5312 14.25C41.5312 14.25 40.5938 16.125 40.5 16.5938C40.4063 16.875 40.5938 17.1562 40.9688 17.25ZM47.4375 26.9063C47.3438 27.2813 47.625 27.5625 47.9062 27.5625C48.2812 27.6562 50.4375 27.4688 50.4375 27.4688C50.4375 27.4688 48.5625 26.5313 48.0938 26.4375C47.8125 26.3438 47.5312 26.5313 47.4375 26.9063ZM37.7812 33.375C37.4062 33.2812 37.125 33.5625 37.125 33.8438C37.0312 34.2188 37.2188 36.375 37.2188 36.375C37.2188 36.375 38.1562 34.5 38.25 34.0312C38.3438 33.75 38.1562 33.4688 37.7812 33.375ZM31.3125 23.7188C31.4063 23.25 31.125 23.0625 30.8438 23.0625C30.4688 22.9688 28.3125 23.1563 28.3125 23.1563C28.3125 23.1563 30.1875 24.0938 30.6563 24.1875C30.9375 24.2812 31.2188 24.0938 31.3125 23.7188ZM43.9688 18.4688C44.3438 18.6563 44.625 18.5625 44.8125 18.2812C45.0938 17.9062 45.6563 15.9375 45.6563 15.9375C45.6563 15.9375 44.0625 17.3437 43.7813 17.625C43.5938 17.9062 43.5938 18.2813 43.9688 18.4688ZM46.2188 29.9062C46.0312 30.2812 46.125 30.5625 46.4062 30.75C46.7812 31.0312 48.75 31.5938 48.75 31.5938C48.75 31.5938 47.3438 30 47.0625 29.7188C46.7813 29.5313 46.4062 29.5312 46.2188 29.9062ZM34.7812 32.1562C34.4062 31.9688 34.125 32.0625 33.9375 32.3438C33.75 32.625 33.0938 34.6875 33.0938 34.6875C33.0938 34.6875 34.6875 33.2813 34.9688 33C35.1562 32.7188 35.1562 32.3438 34.7812 32.1562ZM32.5313 20.7188C32.7188 20.3438 32.625 20.0625 32.3438 19.875C32.0625 19.6875 30 19.0312 30 19.0312C30 19.0312 31.4062 20.625 31.6875 20.9062C31.9688 21.0937 32.3438 21.0938 32.5313 20.7188ZM46.2188 20.7188C46.5 21.0938 46.7813 21.0937 47.0625 20.9062C47.4375 20.625 48.75 19.0312 48.75 19.0312C48.75 19.0312 46.6875 19.6875 46.4062 19.875C46.125 20.1563 45.9375 20.4375 46.2188 20.7188ZM43.9688 32.1562C43.5938 32.4375 43.5938 32.7188 43.7813 33C44.0625 33.375 45.6563 34.6875 45.6563 34.6875C45.6563 34.6875 45 32.625 44.8125 32.3438C44.5312 32.0625 44.25 31.875 43.9688 32.1562ZM32.5313 29.9062C32.25 29.5312 31.9688 29.5313 31.6875 29.7188C31.3125 30 30 31.5938 30 31.5938C30 31.5938 32.0625 30.9375 32.3438 30.75C32.625 30.4688 32.8125 30.1875 32.5313 29.9062ZM34.7812 18.4688C35.1562 18.1875 35.1562 17.9062 34.9688 17.625C34.6875 17.25 33.0938 15.9375 33.0938 15.9375C33.0938 15.9375 33.75 18 33.9375 18.2812C34.2188 18.5625 34.5 18.75 34.7812 18.4688ZM47.4375 23.7188C47.5312 24.0938 47.8125 24.2812 48.0938 24.1875C48.4688 24.0938 50.4375 23.1563 50.4375 23.1563C50.4375 23.1563 48.2812 22.9688 47.9062 23.0625C47.5312 23.0625 47.3438 23.25 47.4375 23.7188ZM40.9688 33.375C40.5938 33.4688 40.4063 33.75 40.5 34.0312C40.5938 34.4062 41.5312 36.375 41.5312 36.375C41.5312 36.375 41.7188 34.2188 41.625 33.8438C41.625 33.4688 41.4375 33.2812 40.9688 33.375ZM31.3125 26.9063C31.2188 26.5313 30.9375 26.3438 30.6563 26.4375C30.2813 26.5313 28.3125 27.4688 28.3125 27.4688C28.3125 27.4688 30.4688 27.6562 30.8438 27.5625C31.2188 27.5625 31.4063 27.375 31.3125 26.9063ZM37.7812 17.25C38.1562 17.1562 38.3438 16.875 38.25 16.5938C38.1562 16.2188 37.2188 14.25 37.2188 14.25C37.2188 14.25 37.0312 16.4062 37.125 16.7812C37.125 17.1562 37.3125 17.3437 37.7812 17.25ZM15.4688 48.375H14.4375V51.8438H12.375C13.4063 52.6875 14.4375 53.3438 15.5625 54.0938V48.375H15.4688ZM14.4375 8.15625V11.625H15.4688V5.90625C14.3438 6.5625 13.3125 7.3125 12.2813 8.15625H14.4375ZM12.0938 8.25C11.8125 8.4375 11.5313 8.71875 11.25 9L14.0625 15.0938H11.7188V11.625H10.6875V15.0938H8.34375L11.0625 9.1875C10.3125 9.84375 9.5625 10.5937 8.90625 11.4375L6.75 16.0312L10.4063 23.9062H8.0625V20.4375H7.03125V29.625H8.0625V25.7812H10.5L9.09375 30L10.5 34.125H8.0625V30.2812H7.03125V39.4688H8.0625V36H10.4063L6.75 43.875L8.90625 48.4688C9.5625 49.2188 10.3125 49.9688 11.0625 50.7188L8.34375 44.8125H10.6875V48.2812H11.7188V44.8125H14.0625L11.25 50.9062C11.5313 51.1875 11.8125 51.375 12.0938 51.6562L15.6563 43.875L12 36H14.3438V39.4688H15.375V30.2812H14.3438V34.125H11.9063L13.3125 30L11.9063 25.875H14.3438V29.7188H15.375V20.5312H14.3438V24H12L15.6563 16.125L12.0938 8.25ZM14.1563 43.0313H11.8125V39.5625H10.7813V43.0313H8.34375L11.25 36.8438L14.1563 43.0313ZM11.25 33L10.5 30.8438H12L11.25 33ZM12 29.1562H10.5L11.25 27L12 29.1562ZM11.25 23.25L8.34375 17.0625H10.6875V20.5312H11.7188V17.0625H14.0625L11.25 23.25Z" fill="#FFE62E"/>
</svg>
