<svg width="106" height="106" viewBox="0 0 106 106" fill="none" xmlns="http://www.w3.org/2000/svg">
<path d="M3.65514 0H-3.05176e-05V3.65516H3.65514V0Z" fill="black"/>
<path d="M7.31026 0H3.65509V3.65516H7.31026V0Z" fill="black"/>
<path d="M10.9654 0H7.31018V3.65516H10.9654V0Z" fill="black"/>
<path d="M14.6207 0H10.9655V3.65516H14.6207V0Z" fill="black"/>
<path d="M18.2757 0H14.6206V3.65516H18.2757V0Z" fill="black"/>
<path d="M21.9311 0H18.2759V3.65516H21.9311V0Z" fill="black"/>
<path d="M25.5861 0H21.931V3.65516H25.5861V0Z" fill="black"/>
<path d="M32.8965 0H29.2414V3.65516H32.8965V0Z" fill="black"/>
<path d="M40.2067 0H36.5515V3.65516H40.2067V0Z" fill="black"/>
<path d="M65.793 0H62.1378V3.65516H65.793V0Z" fill="black"/>
<path d="M69.4483 0H65.7931V3.65516H69.4483V0Z" fill="black"/>
<path d="M73.1034 0H69.4482V3.65516H73.1034V0Z" fill="black"/>
<path d="M84.0691 0H80.4139V3.65516H84.0691V0Z" fill="black"/>
<path d="M87.724 0H84.0688V3.65516H87.724V0Z" fill="black"/>
<path d="M91.3793 0H87.7241V3.65516H91.3793V0Z" fill="black"/>
<path d="M95.0346 0H91.3794V3.65516H95.0346V0Z" fill="black"/>
<path d="M98.6897 0H95.0345V3.65516H98.6897V0Z" fill="black"/>
<path d="M102.345 0H98.6896V3.65516H102.345V0Z" fill="black"/>
<path d="M106 0H102.345V3.65516H106V0Z" fill="black"/>
<path d="M3.65517 3.65527H0V7.31044H3.65517V3.65527Z" fill="black"/>
<path d="M25.5861 3.65527H21.931V7.31044H25.5861V3.65527Z" fill="black"/>
<path d="M36.5516 3.65527H32.8965V7.31044H36.5516V3.65527Z" fill="black"/>
<path d="M51.1722 3.65527H47.517V7.31044H51.1722V3.65527Z" fill="black"/>
<path d="M65.793 3.65527H62.1378V7.31044H65.793V3.65527Z" fill="black"/>
<path d="M73.1034 3.65527H69.4482V7.31044H73.1034V3.65527Z" fill="black"/>
<path d="M84.0691 3.65527H80.4139V7.31044H84.0691V3.65527Z" fill="black"/>
<path d="M106 3.65527H102.345V7.31044H106V3.65527Z" fill="black"/>
<path d="M3.65517 7.31055H0V10.9657H3.65517V7.31055Z" fill="black"/>
<path d="M10.9654 7.31055H7.31018V10.9657H10.9654V7.31055Z" fill="black"/>
<path d="M14.6207 7.31055H10.9655V10.9657H14.6207V7.31055Z" fill="black"/>
<path d="M18.2757 7.31055H14.6206V10.9657H18.2757V7.31055Z" fill="black"/>
<path d="M25.5861 7.31055H21.931V10.9657H25.5861V7.31055Z" fill="black"/>
<path d="M32.8965 7.31055H29.2414V10.9657H32.8965V7.31055Z" fill="black"/>
<path d="M36.5516 7.31055H32.8965V10.9657H36.5516V7.31055Z" fill="black"/>
<path d="M43.862 7.31055H40.2068V10.9657H43.862V7.31055Z" fill="black"/>
<path d="M51.1722 7.31055H47.517V10.9657H51.1722V7.31055Z" fill="black"/>
<path d="M54.8275 7.31055H51.1723V10.9657H54.8275V7.31055Z" fill="black"/>
<path d="M58.4828 7.31055H54.8276V10.9657H58.4828V7.31055Z" fill="black"/>
<path d="M69.4483 7.31055H65.7931V10.9657H69.4483V7.31055Z" fill="black"/>
<path d="M73.1034 7.31055H69.4482V10.9657H73.1034V7.31055Z" fill="black"/>
<path d="M76.7585 7.31055H73.1033V10.9657H76.7585V7.31055Z" fill="black"/>
<path d="M84.0691 7.31055H80.4139V10.9657H84.0691V7.31055Z" fill="black"/>
<path d="M91.3793 7.31055H87.7241V10.9657H91.3793V7.31055Z" fill="black"/>
<path d="M95.0346 7.31055H91.3794V10.9657H95.0346V7.31055Z" fill="black"/>
<path d="M98.6897 7.31055H95.0345V10.9657H98.6897V7.31055Z" fill="black"/>
<path d="M106 7.31055H102.345V10.9657H106V7.31055Z" fill="black"/>
<path d="M3.65517 10.9653H0V14.6205H3.65517V10.9653Z" fill="black"/>
<path d="M10.9654 10.9653H7.31018V14.6205H10.9654V10.9653Z" fill="black"/>
<path d="M14.6207 10.9653H10.9655V14.6205H14.6207V10.9653Z" fill="black"/>
<path d="M18.2757 10.9653H14.6206V14.6205H18.2757V10.9653Z" fill="black"/>
<path d="M25.5861 10.9653H21.931V14.6205H25.5861V10.9653Z" fill="black"/>
<path d="M40.2067 10.9653H36.5515V14.6205H40.2067V10.9653Z" fill="black"/>
<path d="M58.4828 10.9653H54.8276V14.6205H58.4828V10.9653Z" fill="black"/>
<path d="M62.1379 10.9653H58.4827V14.6205H62.1379V10.9653Z" fill="black"/>
<path d="M73.1034 10.9653H69.4482V14.6205H73.1034V10.9653Z" fill="black"/>
<path d="M84.0691 10.9653H80.4139V14.6205H84.0691V10.9653Z" fill="black"/>
<path d="M91.3793 10.9653H87.7241V14.6205H91.3793V10.9653Z" fill="black"/>
<path d="M95.0346 10.9653H91.3794V14.6205H95.0346V10.9653Z" fill="black"/>
<path d="M98.6897 10.9653H95.0345V14.6205H98.6897V10.9653Z" fill="black"/>
<path d="M106 10.9653H102.345V14.6205H106V10.9653Z" fill="black"/>
<path d="M3.65517 14.6201H0V18.2753H3.65517V14.6201Z" fill="black"/>
<path d="M10.9654 14.6201H7.31018V18.2753H10.9654V14.6201Z" fill="black"/>
<path d="M14.6207 14.6201H10.9655V18.2753H14.6207V14.6201Z" fill="black"/>
<path d="M18.2757 14.6201H14.6206V18.2753H18.2757V14.6201Z" fill="black"/>
<path d="M25.5861 14.6201H21.931V18.2753H25.5861V14.6201Z" fill="black"/>
<path d="M32.8965 14.6201H29.2414V18.2753H32.8965V14.6201Z" fill="black"/>
<path d="M36.5516 14.6201H32.8965V18.2753H36.5516V14.6201Z" fill="black"/>
<path d="M40.2067 14.6201H36.5515V18.2753H40.2067V14.6201Z" fill="black"/>
<path d="M47.5173 14.6201H43.8622V18.2753H47.5173V14.6201Z" fill="black"/>
<path d="M51.1722 14.6201H47.517V18.2753H51.1722V14.6201Z" fill="black"/>
<path d="M54.8275 14.6201H51.1723V18.2753H54.8275V14.6201Z" fill="black"/>
<path d="M58.4828 14.6201H54.8276V18.2753H58.4828V14.6201Z" fill="black"/>
<path d="M76.7585 14.6201H73.1033V18.2753H76.7585V14.6201Z" fill="black"/>
<path d="M84.0691 14.6201H80.4139V18.2753H84.0691V14.6201Z" fill="black"/>
<path d="M91.3793 14.6201H87.7241V18.2753H91.3793V14.6201Z" fill="black"/>
<path d="M95.0346 14.6201H91.3794V18.2753H95.0346V14.6201Z" fill="black"/>
<path d="M98.6897 14.6201H95.0345V18.2753H98.6897V14.6201Z" fill="black"/>
<path d="M106 14.6201H102.345V18.2753H106V14.6201Z" fill="black"/>
<path d="M3.65517 18.2759H0V21.931H3.65517V18.2759Z" fill="black"/>
<path d="M25.5861 18.2759H21.931V21.931H25.5861V18.2759Z" fill="black"/>
<path d="M40.2067 18.2759H36.5515V21.931H40.2067V18.2759Z" fill="black"/>
<path d="M54.8275 18.2759H51.1723V21.931H54.8275V18.2759Z" fill="black"/>
<path d="M69.4483 18.2759H65.7931V21.931H69.4483V18.2759Z" fill="black"/>
<path d="M73.1034 18.2759H69.4482V21.931H73.1034V18.2759Z" fill="black"/>
<path d="M84.0691 18.2759H80.4139V21.931H84.0691V18.2759Z" fill="black"/>
<path d="M106 18.2759H102.345V21.931H106V18.2759Z" fill="black"/>
<path d="M3.65517 21.9312H0V25.5863H3.65517V21.9312Z" fill="black"/>
<path d="M7.31026 21.9312H3.65509V25.5863H7.31026V21.9312Z" fill="black"/>
<path d="M10.9654 21.9312H7.31018V25.5863H10.9654V21.9312Z" fill="black"/>
<path d="M14.6207 21.9312H10.9655V25.5863H14.6207V21.9312Z" fill="black"/>
<path d="M18.2757 21.9312H14.6206V25.5863H18.2757V21.9312Z" fill="black"/>
<path d="M21.9311 21.9312H18.2759V25.5863H21.9311V21.9312Z" fill="black"/>
<path d="M25.5861 21.9312H21.931V25.5863H25.5861V21.9312Z" fill="black"/>
<path d="M32.8965 21.9312H29.2414V25.5863H32.8965V21.9312Z" fill="black"/>
<path d="M40.2067 21.9312H36.5515V25.5863H40.2067V21.9312Z" fill="black"/>
<path d="M47.5173 21.9312H43.8622V25.5863H47.5173V21.9312Z" fill="black"/>
<path d="M54.8275 21.9312H51.1723V25.5863H54.8275V21.9312Z" fill="black"/>
<path d="M62.1379 21.9312H58.4827V25.5863H62.1379V21.9312Z" fill="black"/>
<path d="M69.4483 21.9312H65.7931V25.5863H69.4483V21.9312Z" fill="black"/>
<path d="M76.7585 21.9312H73.1033V25.5863H76.7585V21.9312Z" fill="black"/>
<path d="M84.0691 21.9312H80.4139V25.5863H84.0691V21.9312Z" fill="black"/>
<path d="M87.724 21.9312H84.0688V25.5863H87.724V21.9312Z" fill="black"/>
<path d="M91.3793 21.9312H87.7241V25.5863H91.3793V21.9312Z" fill="black"/>
<path d="M95.0346 21.9312H91.3794V25.5863H95.0346V21.9312Z" fill="black"/>
<path d="M98.6897 21.9312H95.0345V25.5863H98.6897V21.9312Z" fill="black"/>
<path d="M102.345 21.9312H98.6896V25.5863H102.345V21.9312Z" fill="black"/>
<path d="M106 21.9312H102.345V25.5863H106V21.9312Z" fill="black"/>
<path d="M32.8965 25.5864H29.2414V29.2416H32.8965V25.5864Z" fill="black"/>
<path d="M36.5516 25.5864H32.8965V29.2416H36.5516V25.5864Z" fill="black"/>
<path d="M47.5173 25.5864H43.8622V29.2416H47.5173V25.5864Z" fill="black"/>
<path d="M51.1722 25.5864H47.517V29.2416H51.1722V25.5864Z" fill="black"/>
<path d="M58.4828 25.5864H54.8276V29.2416H58.4828V25.5864Z" fill="black"/>
<path d="M62.1379 25.5864H58.4827V29.2416H62.1379V25.5864Z" fill="black"/>
<path d="M73.1034 25.5864H69.4482V29.2416H73.1034V25.5864Z" fill="black"/>
<path d="M76.7585 25.5864H73.1033V29.2416H76.7585V25.5864Z" fill="black"/>
<path d="M21.9311 29.2417H18.2759V32.8969H21.9311V29.2417Z" fill="black"/>
<path d="M25.5861 29.2417H21.931V32.8969H25.5861V29.2417Z" fill="black"/>
<path d="M36.5516 29.2417H32.8965V32.8969H36.5516V29.2417Z" fill="black"/>
<path d="M43.862 29.2417H40.2068V32.8969H43.862V29.2417Z" fill="black"/>
<path d="M51.1722 29.2417H47.517V32.8969H51.1722V29.2417Z" fill="black"/>
<path d="M54.8275 29.2417H51.1723V32.8969H54.8275V29.2417Z" fill="black"/>
<path d="M69.4483 29.2417H65.7931V32.8969H69.4483V29.2417Z" fill="black"/>
<path d="M76.7585 29.2417H73.1033V32.8969H76.7585V29.2417Z" fill="black"/>
<path d="M84.0691 29.2417H80.4139V32.8969H84.0691V29.2417Z" fill="black"/>
<path d="M91.3793 29.2417H87.7241V32.8969H91.3793V29.2417Z" fill="black"/>
<path d="M98.6897 29.2417H95.0345V32.8969H98.6897V29.2417Z" fill="black"/>
<path d="M106 29.2417H102.345V32.8969H106V29.2417Z" fill="black"/>
<path d="M3.65517 32.8965H0V36.5516H3.65517V32.8965Z" fill="black"/>
<path d="M18.2757 32.8965H14.6206V36.5516H18.2757V32.8965Z" fill="black"/>
<path d="M47.5173 32.8965H43.8622V36.5516H47.5173V32.8965Z" fill="black"/>
<path d="M58.4828 32.8965H54.8276V36.5516H58.4828V32.8965Z" fill="black"/>
<path d="M62.1379 32.8965H58.4827V36.5516H62.1379V32.8965Z" fill="black"/>
<path d="M65.793 32.8965H62.1378V36.5516H65.793V32.8965Z" fill="black"/>
<path d="M76.7585 32.8965H73.1033V36.5516H76.7585V32.8965Z" fill="black"/>
<path d="M91.3793 32.8965H87.7241V36.5516H91.3793V32.8965Z" fill="black"/>
<path d="M95.0346 32.8965H91.3794V36.5516H95.0346V32.8965Z" fill="black"/>
<path d="M98.6897 32.8965H95.0345V36.5516H98.6897V32.8965Z" fill="black"/>
<path d="M7.31026 36.5513H3.65509V40.2064H7.31026V36.5513Z" fill="black"/>
<path d="M10.9654 36.5513H7.31018V40.2064H10.9654V36.5513Z" fill="black"/>
<path d="M14.6207 36.5513H10.9655V40.2064H14.6207V36.5513Z" fill="black"/>
<path d="M18.2757 36.5513H14.6206V40.2064H18.2757V36.5513Z" fill="black"/>
<path d="M25.5861 36.5513H21.931V40.2064H25.5861V36.5513Z" fill="black"/>
<path d="M36.5516 36.5513H32.8965V40.2064H36.5516V36.5513Z" fill="black"/>
<path d="M40.2067 36.5513H36.5515V40.2064H40.2067V36.5513Z" fill="black"/>
<path d="M43.862 36.5513H40.2068V40.2064H43.862V36.5513Z" fill="black"/>
<path d="M54.8275 36.5513H51.1723V40.2064H54.8275V36.5513Z" fill="black"/>
<path d="M58.4828 36.5513H54.8276V40.2064H58.4828V36.5513Z" fill="black"/>
<path d="M76.7585 36.5513H73.1033V40.2064H76.7585V36.5513Z" fill="black"/>
<path d="M98.6897 36.5513H95.0345V40.2064H98.6897V36.5513Z" fill="black"/>
<path d="M102.345 36.5513H98.6896V40.2064H102.345V36.5513Z" fill="black"/>
<path d="M3.65517 40.207H0V43.8622H3.65517V40.207Z" fill="black"/>
<path d="M14.6207 40.207H10.9655V43.8622H14.6207V40.207Z" fill="black"/>
<path d="M21.9311 40.207H18.2759V43.8622H21.9311V40.207Z" fill="black"/>
<path d="M29.2412 40.207H25.5861V43.8622H29.2412V40.207Z" fill="black"/>
<path d="M32.8965 40.207H29.2414V43.8622H32.8965V40.207Z" fill="black"/>
<path d="M47.5173 40.207H43.8622V43.8622H47.5173V40.207Z" fill="black"/>
<path d="M54.8275 40.207H51.1723V43.8622H54.8275V40.207Z" fill="black"/>
<path d="M58.4828 40.207H54.8276V43.8622H58.4828V40.207Z" fill="black"/>
<path d="M69.4483 40.207H65.7931V43.8622H69.4483V40.207Z" fill="black"/>
<path d="M80.4138 40.207H76.7586V43.8622H80.4138V40.207Z" fill="black"/>
<path d="M84.0691 40.207H80.4139V43.8622H84.0691V40.207Z" fill="black"/>
<path d="M87.724 40.207H84.0688V43.8622H87.724V40.207Z" fill="black"/>
<path d="M91.3793 40.207H87.7241V43.8622H91.3793V40.207Z" fill="black"/>
<path d="M95.0346 40.207H91.3794V43.8622H95.0346V40.207Z" fill="black"/>
<path d="M102.345 40.207H98.6896V43.8622H102.345V40.207Z" fill="black"/>
<path d="M18.2757 43.8618H14.6206V47.517H18.2757V43.8618Z" fill="black"/>
<path d="M21.9311 43.8618H18.2759V47.517H21.9311V43.8618Z" fill="black"/>
<path d="M25.5861 43.8618H21.931V47.517H25.5861V43.8618Z" fill="black"/>
<path d="M29.2412 43.8618H25.5861V47.517H29.2412V43.8618Z" fill="black"/>
<path d="M32.8965 43.8618H29.2414V47.517H32.8965V43.8618Z" fill="black"/>
<path d="M40.2067 43.8618H36.5515V47.517H40.2067V43.8618Z" fill="black"/>
<path d="M51.1722 43.8618H47.517V47.517H51.1722V43.8618Z" fill="black"/>
<path d="M54.8275 43.8618H51.1723V47.517H54.8275V43.8618Z" fill="black"/>
<path d="M62.1379 43.8618H58.4827V47.517H62.1379V43.8618Z" fill="black"/>
<path d="M65.793 43.8618H62.1378V47.517H65.793V43.8618Z" fill="black"/>
<path d="M69.4483 43.8618H65.7931V47.517H69.4483V43.8618Z" fill="black"/>
<path d="M73.1034 43.8618H69.4482V47.517H73.1034V43.8618Z" fill="black"/>
<path d="M80.4138 43.8618H76.7586V47.517H80.4138V43.8618Z" fill="black"/>
<path d="M84.0691 43.8618H80.4139V47.517H84.0691V43.8618Z" fill="black"/>
<path d="M87.724 43.8618H84.0688V47.517H87.724V43.8618Z" fill="black"/>
<path d="M91.3793 43.8618H87.7241V47.517H91.3793V43.8618Z" fill="black"/>
<path d="M98.6897 43.8618H95.0345V47.517H98.6897V43.8618Z" fill="black"/>
<path d="M102.345 43.8618H98.6896V47.517H102.345V43.8618Z" fill="black"/>
<path d="M106 43.8618H102.345V47.517H106V43.8618Z" fill="black"/>
<path d="M3.65517 47.5171H0V51.1723H3.65517V47.5171Z" fill="black"/>
<path d="M18.2757 47.5171H14.6206V51.1723H18.2757V47.5171Z" fill="black"/>
<path d="M21.9311 47.5171H18.2759V51.1723H21.9311V47.5171Z" fill="black"/>
<path d="M29.2412 47.5171H25.5861V51.1723H29.2412V47.5171Z" fill="black"/>
<path d="M40.2067 47.5171H36.5515V51.1723H40.2067V47.5171Z" fill="black"/>
<path d="M43.862 47.5171H40.2068V51.1723H43.862V47.5171Z" fill="black"/>
<path d="M47.5173 47.5171H43.8622V51.1723H47.5173V47.5171Z" fill="black"/>
<path d="M54.8275 47.5171H51.1723V51.1723H54.8275V47.5171Z" fill="black"/>
<path d="M65.793 47.5171H62.1378V51.1723H65.793V47.5171Z" fill="black"/>
<path d="M73.1034 47.5171H69.4482V51.1723H73.1034V47.5171Z" fill="black"/>
<path d="M76.7585 47.5171H73.1033V51.1723H76.7585V47.5171Z" fill="black"/>
<path d="M80.4138 47.5171H76.7586V51.1723H80.4138V47.5171Z" fill="black"/>
<path d="M84.0691 47.5171H80.4139V51.1723H84.0691V47.5171Z" fill="black"/>
<path d="M91.3793 47.5171H87.7241V51.1723H91.3793V47.5171Z" fill="black"/>
<path d="M95.0346 47.5171H91.3794V51.1723H95.0346V47.5171Z" fill="black"/>
<path d="M102.345 47.5171H98.6896V51.1723H102.345V47.5171Z" fill="black"/>
<path d="M3.65517 51.1724H0V54.8275H3.65517V51.1724Z" fill="black"/>
<path d="M10.9654 51.1724H7.31018V54.8275H10.9654V51.1724Z" fill="black"/>
<path d="M14.6207 51.1724H10.9655V54.8275H14.6207V51.1724Z" fill="black"/>
<path d="M21.9311 51.1724H18.2759V54.8275H21.9311V51.1724Z" fill="black"/>
<path d="M25.5861 51.1724H21.931V54.8275H25.5861V51.1724Z" fill="black"/>
<path d="M36.5516 51.1724H32.8965V54.8275H36.5516V51.1724Z" fill="black"/>
<path d="M40.2067 51.1724H36.5515V54.8275H40.2067V51.1724Z" fill="black"/>
<path d="M43.862 51.1724H40.2068V54.8275H43.862V51.1724Z" fill="black"/>
<path d="M47.5173 51.1724H43.8622V54.8275H47.5173V51.1724Z" fill="black"/>
<path d="M58.4828 51.1724H54.8276V54.8275H58.4828V51.1724Z" fill="black"/>
<path d="M65.793 51.1724H62.1378V54.8275H65.793V51.1724Z" fill="black"/>
<path d="M73.1034 51.1724H69.4482V54.8275H73.1034V51.1724Z" fill="black"/>
<path d="M87.724 51.1724H84.0688V54.8275H87.724V51.1724Z" fill="black"/>
<path d="M98.6897 51.1724H95.0345V54.8275H98.6897V51.1724Z" fill="black"/>
<path d="M102.345 51.1724H98.6896V54.8275H102.345V51.1724Z" fill="black"/>
<path d="M3.65517 54.8271H0V58.4823H3.65517V54.8271Z" fill="black"/>
<path d="M7.31026 54.8271H3.65509V58.4823H7.31026V54.8271Z" fill="black"/>
<path d="M18.2757 54.8271H14.6206V58.4823H18.2757V54.8271Z" fill="black"/>
<path d="M32.8965 54.8271H29.2414V58.4823H32.8965V54.8271Z" fill="black"/>
<path d="M58.4828 54.8271H54.8276V58.4823H58.4828V54.8271Z" fill="black"/>
<path d="M62.1379 54.8271H58.4827V58.4823H62.1379V54.8271Z" fill="black"/>
<path d="M69.4483 54.8271H65.7931V58.4823H69.4483V54.8271Z" fill="black"/>
<path d="M73.1034 54.8271H69.4482V58.4823H73.1034V54.8271Z" fill="black"/>
<path d="M76.7585 54.8271H73.1033V58.4823H76.7585V54.8271Z" fill="black"/>
<path d="M80.4138 54.8271H76.7586V58.4823H80.4138V54.8271Z" fill="black"/>
<path d="M87.724 54.8271H84.0688V58.4823H87.724V54.8271Z" fill="black"/>
<path d="M91.3793 54.8271H87.7241V58.4823H91.3793V54.8271Z" fill="black"/>
<path d="M3.65517 58.4824H0V62.1376H3.65517V58.4824Z" fill="black"/>
<path d="M25.5861 58.4824H21.931V62.1376H25.5861V58.4824Z" fill="black"/>
<path d="M29.2412 58.4824H25.5861V62.1376H29.2412V58.4824Z" fill="black"/>
<path d="M32.8965 58.4824H29.2414V62.1376H32.8965V58.4824Z" fill="black"/>
<path d="M36.5516 58.4824H32.8965V62.1376H36.5516V58.4824Z" fill="black"/>
<path d="M43.862 58.4824H40.2068V62.1376H43.862V58.4824Z" fill="black"/>
<path d="M47.5173 58.4824H43.8622V62.1376H47.5173V58.4824Z" fill="black"/>
<path d="M51.1722 58.4824H47.517V62.1376H51.1722V58.4824Z" fill="black"/>
<path d="M54.8275 58.4824H51.1723V62.1376H54.8275V58.4824Z" fill="black"/>
<path d="M58.4828 58.4824H54.8276V62.1376H58.4828V58.4824Z" fill="black"/>
<path d="M65.793 58.4824H62.1378V62.1376H65.793V58.4824Z" fill="black"/>
<path d="M69.4483 58.4824H65.7931V62.1376H69.4483V58.4824Z" fill="black"/>
<path d="M80.4138 58.4824H76.7586V62.1376H80.4138V58.4824Z" fill="black"/>
<path d="M84.0691 58.4824H80.4139V62.1376H84.0691V58.4824Z" fill="black"/>
<path d="M3.65517 62.1377H0V65.7929H3.65517V62.1377Z" fill="black"/>
<path d="M7.31026 62.1377H3.65509V65.7929H7.31026V62.1377Z" fill="black"/>
<path d="M10.9654 62.1377H7.31018V65.7929H10.9654V62.1377Z" fill="black"/>
<path d="M29.2412 62.1377H25.5861V65.7929H29.2412V62.1377Z" fill="black"/>
<path d="M54.8275 62.1377H51.1723V65.7929H54.8275V62.1377Z" fill="black"/>
<path d="M65.793 62.1377H62.1378V65.7929H65.793V62.1377Z" fill="black"/>
<path d="M69.4483 62.1377H65.7931V65.7929H69.4483V62.1377Z" fill="black"/>
<path d="M76.7585 62.1377H73.1033V65.7929H76.7585V62.1377Z" fill="black"/>
<path d="M80.4138 62.1377H76.7586V65.7929H80.4138V62.1377Z" fill="black"/>
<path d="M87.724 62.1377H84.0688V65.7929H87.724V62.1377Z" fill="black"/>
<path d="M95.0346 62.1377H91.3794V65.7929H95.0346V62.1377Z" fill="black"/>
<path d="M3.65517 65.793H0V69.4481H3.65517V65.793Z" fill="black"/>
<path d="M7.31026 65.793H3.65509V69.4481H7.31026V65.793Z" fill="black"/>
<path d="M10.9654 65.793H7.31018V69.4481H10.9654V65.793Z" fill="black"/>
<path d="M25.5861 65.793H21.931V69.4481H25.5861V65.793Z" fill="black"/>
<path d="M29.2412 65.793H25.5861V69.4481H29.2412V65.793Z" fill="black"/>
<path d="M40.2067 65.793H36.5515V69.4481H40.2067V65.793Z" fill="black"/>
<path d="M43.862 65.793H40.2068V69.4481H43.862V65.793Z" fill="black"/>
<path d="M47.5173 65.793H43.8622V69.4481H47.5173V65.793Z" fill="black"/>
<path d="M62.1379 65.793H58.4827V69.4481H62.1379V65.793Z" fill="black"/>
<path d="M76.7585 65.793H73.1033V69.4481H76.7585V65.793Z" fill="black"/>
<path d="M80.4138 65.793H76.7586V69.4481H80.4138V65.793Z" fill="black"/>
<path d="M84.0691 65.793H80.4139V69.4481H84.0691V65.793Z" fill="black"/>
<path d="M87.724 65.793H84.0688V69.4481H87.724V65.793Z" fill="black"/>
<path d="M106 65.793H102.345V69.4481H106V65.793Z" fill="black"/>
<path d="M3.65517 69.4482H0V73.1034H3.65517V69.4482Z" fill="black"/>
<path d="M10.9654 69.4482H7.31018V73.1034H10.9654V69.4482Z" fill="black"/>
<path d="M14.6207 69.4482H10.9655V73.1034H14.6207V69.4482Z" fill="black"/>
<path d="M18.2757 69.4482H14.6206V73.1034H18.2757V69.4482Z" fill="black"/>
<path d="M32.8965 69.4482H29.2414V73.1034H32.8965V69.4482Z" fill="black"/>
<path d="M36.5516 69.4482H32.8965V73.1034H36.5516V69.4482Z" fill="black"/>
<path d="M47.5173 69.4482H43.8622V73.1034H47.5173V69.4482Z" fill="black"/>
<path d="M51.1722 69.4482H47.517V73.1034H51.1722V69.4482Z" fill="black"/>
<path d="M54.8275 69.4482H51.1723V73.1034H54.8275V69.4482Z" fill="black"/>
<path d="M58.4828 69.4482H54.8276V73.1034H58.4828V69.4482Z" fill="black"/>
<path d="M62.1379 69.4482H58.4827V73.1034H62.1379V69.4482Z" fill="black"/>
<path d="M73.1034 69.4482H69.4482V73.1034H73.1034V69.4482Z" fill="black"/>
<path d="M76.7585 69.4482H73.1033V73.1034H76.7585V69.4482Z" fill="black"/>
<path d="M80.4138 69.4482H76.7586V73.1034H80.4138V69.4482Z" fill="black"/>
<path d="M84.0691 69.4482H80.4139V73.1034H84.0691V69.4482Z" fill="black"/>
<path d="M91.3793 69.4482H87.7241V73.1034H91.3793V69.4482Z" fill="black"/>
<path d="M106 69.4482H102.345V73.1034H106V69.4482Z" fill="black"/>
<path d="M3.65517 73.104H0V76.7592H3.65517V73.104Z" fill="black"/>
<path d="M18.2757 73.104H14.6206V76.7592H18.2757V73.104Z" fill="black"/>
<path d="M21.9311 73.104H18.2759V76.7592H21.9311V73.104Z" fill="black"/>
<path d="M25.5861 73.104H21.931V76.7592H25.5861V73.104Z" fill="black"/>
<path d="M36.5516 73.104H32.8965V76.7592H36.5516V73.104Z" fill="black"/>
<path d="M43.862 73.104H40.2068V76.7592H43.862V73.104Z" fill="black"/>
<path d="M47.5173 73.104H43.8622V76.7592H47.5173V73.104Z" fill="black"/>
<path d="M69.4483 73.104H65.7931V76.7592H69.4483V73.104Z" fill="black"/>
<path d="M73.1034 73.104H69.4482V76.7592H73.1034V73.104Z" fill="black"/>
<path d="M76.7585 73.104H73.1033V76.7592H76.7585V73.104Z" fill="black"/>
<path d="M80.4138 73.104H76.7586V76.7592H80.4138V73.104Z" fill="black"/>
<path d="M84.0691 73.104H80.4139V76.7592H84.0691V73.104Z" fill="black"/>
<path d="M87.724 73.104H84.0688V76.7592H87.724V73.104Z" fill="black"/>
<path d="M91.3793 73.104H87.7241V76.7592H91.3793V73.104Z" fill="black"/>
<path d="M98.6897 73.104H95.0345V76.7592H98.6897V73.104Z" fill="black"/>
<path d="M102.345 73.104H98.6896V76.7592H102.345V73.104Z" fill="black"/>
<path d="M106 73.104H102.345V76.7592H106V73.104Z" fill="black"/>
<path d="M32.8965 76.7588H29.2414V80.414H32.8965V76.7588Z" fill="black"/>
<path d="M43.862 76.7588H40.2068V80.414H43.862V76.7588Z" fill="black"/>
<path d="M62.1379 76.7588H58.4827V80.414H62.1379V76.7588Z" fill="black"/>
<path d="M69.4483 76.7588H65.7931V80.414H69.4483V76.7588Z" fill="black"/>
<path d="M73.1034 76.7588H69.4482V80.414H73.1034V76.7588Z" fill="black"/>
<path d="M76.7585 76.7588H73.1033V80.414H76.7585V76.7588Z" fill="black"/>
<path d="M91.3793 76.7588H87.7241V80.414H91.3793V76.7588Z" fill="black"/>
<path d="M95.0346 76.7588H91.3794V80.414H95.0346V76.7588Z" fill="black"/>
<path d="M98.6897 76.7588H95.0345V80.414H98.6897V76.7588Z" fill="black"/>
<path d="M106 76.7588H102.345V80.414H106V76.7588Z" fill="black"/>
<path d="M3.65517 80.4136H0V84.0687H3.65517V80.4136Z" fill="black"/>
<path d="M7.31026 80.4136H3.65509V84.0687H7.31026V80.4136Z" fill="black"/>
<path d="M10.9654 80.4136H7.31018V84.0687H10.9654V80.4136Z" fill="black"/>
<path d="M14.6207 80.4136H10.9655V84.0687H14.6207V80.4136Z" fill="black"/>
<path d="M18.2757 80.4136H14.6206V84.0687H18.2757V80.4136Z" fill="black"/>
<path d="M21.9311 80.4136H18.2759V84.0687H21.9311V80.4136Z" fill="black"/>
<path d="M25.5861 80.4136H21.931V84.0687H25.5861V80.4136Z" fill="black"/>
<path d="M36.5516 80.4136H32.8965V84.0687H36.5516V80.4136Z" fill="black"/>
<path d="M47.5173 80.4136H43.8622V84.0687H47.5173V80.4136Z" fill="black"/>
<path d="M62.1379 80.4136H58.4827V84.0687H62.1379V80.4136Z" fill="black"/>
<path d="M69.4483 80.4136H65.7931V84.0687H69.4483V80.4136Z" fill="black"/>
<path d="M73.1034 80.4136H69.4482V84.0687H73.1034V80.4136Z" fill="black"/>
<path d="M76.7585 80.4136H73.1033V84.0687H76.7585V80.4136Z" fill="black"/>
<path d="M84.0691 80.4136H80.4139V84.0687H84.0691V80.4136Z" fill="black"/>
<path d="M91.3793 80.4136H87.7241V84.0687H91.3793V80.4136Z" fill="black"/>
<path d="M95.0346 80.4136H91.3794V84.0687H95.0346V80.4136Z" fill="black"/>
<path d="M98.6897 80.4136H95.0345V84.0687H98.6897V80.4136Z" fill="black"/>
<path d="M3.65517 84.0688H0V87.724H3.65517V84.0688Z" fill="black"/>
<path d="M25.5861 84.0688H21.931V87.724H25.5861V84.0688Z" fill="black"/>
<path d="M32.8965 84.0688H29.2414V87.724H32.8965V84.0688Z" fill="black"/>
<path d="M40.2067 84.0688H36.5515V87.724H40.2067V84.0688Z" fill="black"/>
<path d="M43.862 84.0688H40.2068V87.724H43.862V84.0688Z" fill="black"/>
<path d="M47.5173 84.0688H43.8622V87.724H47.5173V84.0688Z" fill="black"/>
<path d="M54.8275 84.0688H51.1723V87.724H54.8275V84.0688Z" fill="black"/>
<path d="M69.4483 84.0688H65.7931V87.724H69.4483V84.0688Z" fill="black"/>
<path d="M73.1034 84.0688H69.4482V87.724H73.1034V84.0688Z" fill="black"/>
<path d="M76.7585 84.0688H73.1033V87.724H76.7585V84.0688Z" fill="black"/>
<path d="M91.3793 84.0688H87.7241V87.724H91.3793V84.0688Z" fill="black"/>
<path d="M95.0346 84.0688H91.3794V87.724H95.0346V84.0688Z" fill="black"/>
<path d="M102.345 84.0688H98.6896V87.724H102.345V84.0688Z" fill="black"/>
<path d="M106 84.0688H102.345V87.724H106V84.0688Z" fill="black"/>
<path d="M3.65517 87.7236H0V91.3788H3.65517V87.7236Z" fill="black"/>
<path d="M10.9654 87.7236H7.31018V91.3788H10.9654V87.7236Z" fill="black"/>
<path d="M14.6207 87.7236H10.9655V91.3788H14.6207V87.7236Z" fill="black"/>
<path d="M18.2757 87.7236H14.6206V91.3788H18.2757V87.7236Z" fill="black"/>
<path d="M25.5861 87.7236H21.931V91.3788H25.5861V87.7236Z" fill="black"/>
<path d="M40.2067 87.7236H36.5515V91.3788H40.2067V87.7236Z" fill="black"/>
<path d="M51.1722 87.7236H47.517V91.3788H51.1722V87.7236Z" fill="black"/>
<path d="M54.8275 87.7236H51.1723V91.3788H54.8275V87.7236Z" fill="black"/>
<path d="M65.793 87.7236H62.1378V91.3788H65.793V87.7236Z" fill="black"/>
<path d="M76.7585 87.7236H73.1033V91.3788H76.7585V87.7236Z" fill="black"/>
<path d="M80.4138 87.7236H76.7586V91.3788H80.4138V87.7236Z" fill="black"/>
<path d="M84.0691 87.7236H80.4139V91.3788H84.0691V87.7236Z" fill="black"/>
<path d="M87.724 87.7236H84.0688V91.3788H87.724V87.7236Z" fill="black"/>
<path d="M91.3793 87.7236H87.7241V91.3788H91.3793V87.7236Z" fill="black"/>
<path d="M95.0346 87.7236H91.3794V91.3788H95.0346V87.7236Z" fill="black"/>
<path d="M98.6897 87.7236H95.0345V91.3788H98.6897V87.7236Z" fill="black"/>
<path d="M106 87.7236H102.345V91.3788H106V87.7236Z" fill="black"/>
<path d="M3.65517 91.3789H0V95.0341H3.65517V91.3789Z" fill="black"/>
<path d="M10.9654 91.3789H7.31018V95.0341H10.9654V91.3789Z" fill="black"/>
<path d="M14.6207 91.3789H10.9655V95.0341H14.6207V91.3789Z" fill="black"/>
<path d="M18.2757 91.3789H14.6206V95.0341H18.2757V91.3789Z" fill="black"/>
<path d="M25.5861 91.3789H21.931V95.0341H25.5861V91.3789Z" fill="black"/>
<path d="M40.2067 91.3789H36.5515V95.0341H40.2067V91.3789Z" fill="black"/>
<path d="M47.5173 91.3789H43.8622V95.0341H47.5173V91.3789Z" fill="black"/>
<path d="M54.8275 91.3789H51.1723V95.0341H54.8275V91.3789Z" fill="black"/>
<path d="M58.4828 91.3789H54.8276V95.0341H58.4828V91.3789Z" fill="black"/>
<path d="M65.793 91.3789H62.1378V95.0341H65.793V91.3789Z" fill="black"/>
<path d="M69.4483 91.3789H65.7931V95.0341H69.4483V91.3789Z" fill="black"/>
<path d="M76.7585 91.3789H73.1033V95.0341H76.7585V91.3789Z" fill="black"/>
<path d="M84.0691 91.3789H80.4139V95.0341H84.0691V91.3789Z" fill="black"/>
<path d="M91.3793 91.3789H87.7241V95.0341H91.3793V91.3789Z" fill="black"/>
<path d="M95.0346 91.3789H91.3794V95.0341H95.0346V91.3789Z" fill="black"/>
<path d="M102.345 91.3789H98.6896V95.0341H102.345V91.3789Z" fill="black"/>
<path d="M3.65517 95.0347H0V98.6898H3.65517V95.0347Z" fill="black"/>
<path d="M10.9654 95.0347H7.31018V98.6898H10.9654V95.0347Z" fill="black"/>
<path d="M14.6207 95.0347H10.9655V98.6898H14.6207V95.0347Z" fill="black"/>
<path d="M18.2757 95.0347H14.6206V98.6898H18.2757V95.0347Z" fill="black"/>
<path d="M25.5861 95.0347H21.931V98.6898H25.5861V95.0347Z" fill="black"/>
<path d="M36.5516 95.0347H32.8965V98.6898H36.5516V95.0347Z" fill="black"/>
<path d="M43.862 95.0347H40.2068V98.6898H43.862V95.0347Z" fill="black"/>
<path d="M54.8275 95.0347H51.1723V98.6898H54.8275V95.0347Z" fill="black"/>
<path d="M58.4828 95.0347H54.8276V98.6898H58.4828V95.0347Z" fill="black"/>
<path d="M62.1379 95.0347H58.4827V98.6898H62.1379V95.0347Z" fill="black"/>
<path d="M69.4483 95.0347H65.7931V98.6898H69.4483V95.0347Z" fill="black"/>
<path d="M80.4138 95.0347H76.7586V98.6898H80.4138V95.0347Z" fill="black"/>
<path d="M84.0691 95.0347H80.4139V98.6898H84.0691V95.0347Z" fill="black"/>
<path d="M87.724 95.0347H84.0688V98.6898H87.724V95.0347Z" fill="black"/>
<path d="M91.3793 95.0347H87.7241V98.6898H91.3793V95.0347Z" fill="black"/>
<path d="M98.6897 95.0347H95.0345V98.6898H98.6897V95.0347Z" fill="black"/>
<path d="M102.345 95.0347H98.6896V98.6898H102.345V95.0347Z" fill="black"/>
<path d="M3.65517 98.689H0V102.344H3.65517V98.689Z" fill="black"/>
<path d="M25.5861 98.689H21.931V102.344H25.5861V98.689Z" fill="black"/>
<path d="M36.5516 98.689H32.8965V102.344H36.5516V98.689Z" fill="black"/>
<path d="M47.5173 98.689H43.8622V102.344H47.5173V98.689Z" fill="black"/>
<path d="M54.8275 98.689H51.1723V102.344H54.8275V98.689Z" fill="black"/>
<path d="M62.1379 98.689H58.4827V102.344H62.1379V98.689Z" fill="black"/>
<path d="M65.793 98.689H62.1378V102.344H65.793V98.689Z" fill="black"/>
<path d="M76.7585 98.689H73.1033V102.344H76.7585V98.689Z" fill="black"/>
<path d="M84.0691 98.689H80.4139V102.344H84.0691V98.689Z" fill="black"/>
<path d="M87.724 98.689H84.0688V102.344H87.724V98.689Z" fill="black"/>
<path d="M98.6897 98.689H95.0345V102.344H98.6897V98.689Z" fill="black"/>
<path d="M102.345 98.689H98.6896V102.344H102.345V98.689Z" fill="black"/>
<path d="M3.65517 102.344H0V105.999H3.65517V102.344Z" fill="black"/>
<path d="M7.31026 102.344H3.65509V105.999H7.31026V102.344Z" fill="black"/>
<path d="M10.9654 102.344H7.31018V105.999H10.9654V102.344Z" fill="black"/>
<path d="M14.6207 102.344H10.9655V105.999H14.6207V102.344Z" fill="black"/>
<path d="M18.2757 102.344H14.6206V105.999H18.2757V102.344Z" fill="black"/>
<path d="M21.9311 102.344H18.2759V105.999H21.9311V102.344Z" fill="black"/>
<path d="M25.5861 102.344H21.931V105.999H25.5861V102.344Z" fill="black"/>
<path d="M43.862 102.344H40.2068V105.999H43.862V102.344Z" fill="black"/>
<path d="M51.1722 102.344H47.517V105.999H51.1722V102.344Z" fill="black"/>
<path d="M54.8275 102.344H51.1723V105.999H54.8275V102.344Z" fill="black"/>
<path d="M58.4828 102.344H54.8276V105.999H58.4828V102.344Z" fill="black"/>
<path d="M62.1379 102.344H58.4827V105.999H62.1379V102.344Z" fill="black"/>
<path d="M65.793 102.344H62.1378V105.999H65.793V102.344Z" fill="black"/>
<path d="M69.4483 102.344H65.7931V105.999H69.4483V102.344Z" fill="black"/>
<path d="M80.4138 102.344H76.7586V105.999H80.4138V102.344Z" fill="black"/>
<path d="M87.724 102.344H84.0688V105.999H87.724V102.344Z" fill="black"/>
<path d="M91.3793 102.344H87.7241V105.999H91.3793V102.344Z" fill="black"/>
<path d="M95.0346 102.344H91.3794V105.999H95.0346V102.344Z" fill="black"/>
</svg>
