<svg width="60" height="60" viewBox="0 0 60 60" fill="none" xmlns="http://www.w3.org/2000/svg">
<path d="M19.2453 57.1054H40.7547C42.6839 57.1054 44.5858 56.6495 46.3054 55.775C48.025 54.9005 49.5136 53.6321 50.65 52.0731C51.7864 50.5142 52.5384 48.7088 52.8447 46.8041C53.151 44.8994 53.0029 42.9492 52.4126 41.1126L47.1898 24.8687C46.1982 21.7835 44.2529 19.0925 41.6341 17.1835C39.0153 15.2744 35.8583 14.2457 32.6175 14.2456H27.3825C24.1418 14.2457 20.9847 15.2744 18.3659 17.1835C15.7471 19.0925 13.8018 21.7835 12.8102 24.8687L7.58741 41.1126C6.99708 42.9492 6.84904 44.8994 7.15534 46.8041C7.46165 48.7088 8.21363 50.5142 9.35002 52.0731C10.4864 53.6321 11.9751 54.9005 13.6946 55.775C15.4142 56.6495 17.3161 57.1054 19.2453 57.1054ZM39.1842 2C37.1433 10.1638 34.0819 14.2456 30 14.2456C25.9181 14.2456 22.8567 10.1638 20.8158 2H39.1842Z" stroke="#0E80D4" stroke-width="2" stroke-linecap="round" stroke-linejoin="round"/>
<path d="M36.1226 26.4913H28.4691C27.2512 26.4913 26.0831 26.9752 25.222 27.8363C24.3608 28.6975 23.877 29.8656 23.877 31.0835C23.877 32.3014 24.3608 33.4694 25.222 34.3306C26.0831 35.1918 27.2512 35.6756 28.4691 35.6756H31.5305C32.7484 35.6756 33.9164 36.1594 34.7776 37.0206C35.6388 37.8818 36.1226 39.0498 36.1226 40.2677C36.1226 41.4856 35.6388 42.6536 34.7776 43.5148C33.9164 44.376 32.7484 44.8598 31.5305 44.8598H23.877M29.9998 23.4299V26.4913M29.9998 44.8598V47.9212" stroke="#0E80D4" stroke-width="2" stroke-linecap="round" stroke-linejoin="round"/>
</svg>
