<svg width="48" height="48" viewBox="0 0 48 48" fill="none" xmlns="http://www.w3.org/2000/svg">
<rect x="0.000244141" width="48" height="48" rx="10" fill="black"/>
<path d="M31.9673 32.7986C30.9851 34.2534 29.9438 35.673 28.3582 35.6965C26.7725 35.7317 26.2637 34.7696 24.4651 34.7696C22.6546 34.7696 22.0984 35.673 20.5956 35.7317C19.0454 35.7904 17.874 34.183 16.88 32.7634C14.8565 29.8654 13.3064 24.5271 15.389 20.937C16.4185 19.1536 18.2645 18.0273 20.2643 17.9921C21.7789 17.9686 23.2226 19.0128 24.1574 19.0128C25.0804 19.0128 26.8317 17.7574 28.6658 17.9452C29.435 17.9804 31.5886 18.2502 32.9731 20.2682C32.8666 20.3386 30.4053 21.77 30.429 24.7383C30.4645 28.2815 33.5647 29.4665 33.6002 29.4783C33.5647 29.5604 33.1032 31.1677 31.9673 32.7986ZM25.2105 14.0265C26.0744 13.0527 27.5062 12.3135 28.6895 12.2666C28.8433 13.6393 28.2872 15.0238 27.4588 16.0093C26.6424 17.0066 25.2934 17.7809 23.9681 17.6753C23.7906 16.3261 24.4532 14.9182 25.2105 14.0265Z" fill="white"/>
</svg>
