<svg width="60" height="60" viewBox="0 0 60 60" fill="none" xmlns="http://www.w3.org/2000/svg">
<path d="M12.5 22.7075C12.5 19.7925 15 18.75 16.25 18.75C18.735 18.75 20 20.635 20 22.7075C20 27.54 16.6425 30 12.5 30C8.3575 30 5 26.0825 5 21.25C5 16.4175 8.3575 12.5 12.5 12.5H47.5C51.6425 12.5 55 16.4175 55 21.25C55 26.0825 51.6425 30 47.5 30C43.3575 30 40 27.54 40 22.7075C40 20.6325 41.265 18.75 43.75 18.75C45 18.75 47.5 19.7925 47.5 22.7075" stroke="#0E80D4" stroke-width="2" stroke-linecap="round"/>
<path d="M7.5 50C7.5 49.337 7.76339 48.7011 8.23223 48.2322C8.70107 47.7634 9.33696 47.5 10 47.5H50C50.663 47.5 51.2989 47.7634 51.7678 48.2322C52.2366 48.7011 52.5 49.337 52.5 50V52.5C52.5 53.163 52.2366 53.7989 51.7678 54.2678C51.2989 54.7366 50.663 55 50 55H10C9.33696 55 8.70107 54.7366 8.23223 54.2678C7.76339 53.7989 7.5 53.163 7.5 52.5V50Z" stroke="#0E80D4" stroke-width="2"/>
<path d="M32.5 22.5H27.5M23.75 47.5V37.5M36.25 47.5V37.5M47.5 12.5C47.5 8.965 47.5 7.1975 46.4 6.1C45.305 5 43.5375 5 40 5H20C16.465 5 14.6975 5 13.6 6.1C12.5 7.195 12.5 8.9625 12.5 12.5M12.5 30V47.5H47.5V30" stroke="#0E80D4" stroke-width="2" stroke-linecap="round"/>
</svg>
