<svg width="60" height="60" viewBox="0 0 60 60" fill="none" xmlns="http://www.w3.org/2000/svg">
<path d="M45 16.25L52.5 12.5L46.25 6.25L28.75 1.25L11.25 6.25L5 12.5L12.5 16.25M45 16.25H12.5M45 16.25L43.75 21.25L28.75 25L13.75 21.25L12.5 16.25" stroke="#0E80D4" stroke-width="2" stroke-miterlimit="10" stroke-linecap="round" stroke-linejoin="round"/>
<path d="M43.75 21.25V37.5L28.75 43.75L13.75 37.5V21.25M43.75 23.75H48.75V30L43.75 32.5M13.75 23.75H8.75V30L13.75 32.5M23.75 26.25V28.75M33.75 26.25V28.75M31.25 10L28.75 12.5L26.25 10V6.25H31.25V10Z" stroke="#0E80D4" stroke-width="2" stroke-miterlimit="10" stroke-linecap="round" stroke-linejoin="round"/>
<path d="M25 36.25L28.75 37.5L32.5 36.25M14.89 49.0225L12.5 53.7475L17.5 58.7475M42.61 49.0225L45 53.7475L40 58.7475M36.135 47.7275L28.75 58.7525L21.365 47.7275" stroke="#0E80D4" stroke-width="2" stroke-miterlimit="10" stroke-linecap="round" stroke-linejoin="round"/>
<path d="M25.1699 53.4075L28.7499 46.25L32.3299 53.4075" stroke="#0E80D4" stroke-width="2" stroke-miterlimit="10" stroke-linecap="round" stroke-linejoin="round"/>
<path d="M56.25 58.75L53.75 51.25L28.75 46.25L3.75 51.25L1.25 58.75" stroke="#0E80D4" stroke-width="2" stroke-miterlimit="10" stroke-linecap="round" stroke-linejoin="round"/>
</svg>
