<svg width="40" height="40" viewBox="0 0 40 40" fill="none" xmlns="http://www.w3.org/2000/svg">
<path d="M20 3.3335V13.3335L23.3333 10.0002" stroke="#00469A" stroke-width="2" stroke-linecap="round" stroke-linejoin="round"/>
<path d="M19.9998 13.3333L16.6665 10" stroke="#00469A" stroke-width="2" stroke-linecap="round" stroke-linejoin="round"/>
<path d="M11.6667 20C5 20 5 22.9833 5 26.6667V28.3333C5 32.9333 5 36.6667 13.3333 36.6667H26.6667C33.3333 36.6667 35 32.9333 35 28.3333V26.6667C35 22.9833 35 20 28.3333 20C26.6667 20 26.2 20.35 25.3333 21L23.6333 22.8C21.6667 24.9 18.3333 24.9 16.35 22.8L14.6667 21C13.8 20.35 13.3333 20 11.6667 20Z" stroke="#00469A" stroke-width="2" stroke-miterlimit="10" stroke-linecap="round" stroke-linejoin="round"/>
<path d="M8.3335 20.0001V13.3334C8.3335 9.9834 8.3335 7.21673 13.3335 6.7334" stroke="#00469A" stroke-width="2" stroke-miterlimit="10" stroke-linecap="round" stroke-linejoin="round"/>
<path d="M31.6665 20.0001V13.3334C31.6665 9.9834 31.6665 7.21673 26.6665 6.7334" stroke="#00469A" stroke-width="2" stroke-miterlimit="10" stroke-linecap="round" stroke-linejoin="round"/>
</svg>
