<svg xmlns="http://www.w3.org/2000/svg" version="1.1" xmlns:xlink="http://www.w3.org/1999/xlink" width="40" height="40"><svg width="40" height="40" viewBox="0 0 40 40" fill="none" xmlns="http://www.w3.org/2000/svg">
<path fill-rule="evenodd" clip-rule="evenodd" d="M0.325317 19.9982C0.325317 9.12974 9.13411 0.319092 20.0003 0.319092C30.3445 0.319092 38.8243 8.30363 39.615 18.447C39.5749 17.933 39.515 17.4246 39.4362 16.9224C39.1049 19.0384 38.053 21.5857 34.1923 22.7305C30.0519 23.9584 26.9583 22.6477 24.8391 21.7499C24.3097 21.5256 23.8411 21.327 23.4322 21.2003C23.4314 21.257 23.4302 21.3131 23.4286 21.3686C23.4192 21.6947 23.3963 22.0034 23.3754 22.2836L23.3729 22.3178C23.3512 22.6103 23.3329 22.8662 23.3329 23.0903C23.3329 23.5253 23.4455 24.1119 23.6133 24.7198C23.7797 25.3231 23.9949 25.9272 24.1878 26.3895C24.2785 26.6067 24.3836 26.789 24.4958 26.9791L24.5178 27.0164C24.6221 27.1929 24.7336 27.3816 24.829 27.5979C25.0397 28.0755 25.1636 28.6662 25.084 29.6357C24.993 30.7441 24.0395 31.3318 23.1597 31.5937C22.7096 31.7276 22.2485 31.7875 21.8627 31.7889C21.6698 31.7897 21.4903 31.7759 21.3369 31.747C21.1912 31.7196 21.0394 31.6735 20.9265 31.5898C20.6333 31.3725 20.3757 31.0413 20.1584 30.6714C19.9392 30.2983 19.7513 29.869 19.6043 29.438C19.4914 29.1071 19.1921 28.8144 18.813 28.561C18.4863 28.3425 18.1357 28.1756 17.8643 28.0464L17.8639 28.0462C17.8246 28.0276 17.787 28.0097 17.7514 27.9925C17.6949 27.9653 17.6152 27.9303 17.5182 27.8878C17.1935 27.7454 16.675 27.518 16.1842 27.2123C15.5487 26.8164 14.8729 26.2405 14.6706 25.4415C14.5151 24.8275 14.5861 24.204 14.7283 23.6848C14.8705 23.1654 15.0895 22.7294 15.2548 22.4788C15.1469 22.785 15.0378 23.1399 15.0105 23.8496C15.0105 24.3955 15.0748 24.8145 15.1997 25.3075C15.3478 25.8922 15.8655 26.3705 16.4728 26.7488C16.9249 27.0305 17.3786 27.2297 17.7051 27.3731C17.8157 27.4216 17.9117 27.4638 17.9881 27.5006C18.0207 27.5163 18.0561 27.5331 18.0939 27.551L18.0955 27.5518C18.3648 27.6798 18.7538 27.8647 19.1164 28.1071C19.5257 28.3808 19.9491 28.758 20.1209 29.2617C20.2586 29.6653 20.4321 30.0596 20.629 30.3948C20.8278 30.7332 21.041 30.9951 21.2515 31.1512C21.2645 31.1608 21.3187 31.1881 21.4377 31.2105C21.549 31.2314 21.6928 31.2436 21.8606 31.243C22.1962 31.2417 22.6055 31.189 23.0041 31.0704C23.8216 30.8271 24.4777 30.3495 24.54 29.5911C24.6137 28.6938 24.4967 28.1972 24.3296 27.8183C24.2477 27.6324 24.1516 27.4697 24.0444 27.2882L24.0257 27.2566C23.9127 27.0651 23.7906 26.8547 23.6841 26.5998C23.4829 26.1176 23.2601 25.4918 23.0871 24.8651C22.9154 24.2431 22.7871 23.5998 22.7871 23.0903C22.7871 22.8422 22.8072 22.5655 22.8286 22.2774L22.8309 22.2465C22.8518 21.9641 22.874 21.6663 22.883 21.3528C22.9017 20.7041 22.8637 20.0009 22.6455 19.2821C22.4223 18.5465 22.115 17.8692 21.5775 17.2813L21.5069 17.204C21.4429 17.1338 21.3771 17.0616 21.3088 16.9882L25.7047 7.21121L19.6501 15.7287C19.5244 15.6722 19.3919 15.6199 19.2517 15.5728L19.2361 15.5676L19.2108 15.5592L19.2013 15.5561C19.1962 15.5544 19.1911 15.5527 19.1861 15.5511C19.1777 15.5484 19.1694 15.5457 19.161 15.543C19.1527 15.5403 19.1443 15.5376 19.136 15.535C16.6613 14.7443 14.1188 14.9681 10.1549 17.0766C7.00131 18.754 5.0473 22.6291 4.59442 25.7259C4.43754 26.7987 4.43392 30.8732 5.93717 33.761C2.46543 30.2125 0.325317 25.3553 0.325317 19.9982ZM10.3022 37.1246C8.69195 36.2104 7.22329 35.0757 5.93733 33.7613L5.93717 33.761C7.22318 35.0755 8.69188 36.2104 10.3022 37.1246Z" fill="#F07D29"></path>
<path d="M20.0003 39.6774C30.8665 39.6774 39.6753 30.8667 39.6753 19.9982C39.6753 19.5777 39.6621 19.1602 39.6361 18.7462C39.6298 18.6462 39.6228 18.5465 39.615 18.447C39.5749 17.933 39.515 17.4246 39.4362 16.9224C39.1049 19.0384 38.053 21.5857 34.1923 22.7305C30.0519 23.9584 26.9583 22.6477 24.8391 21.7499C24.3097 21.5256 23.8411 21.327 23.4322 21.2003C23.4314 21.257 23.4302 21.3131 23.4286 21.3686C23.4192 21.6947 23.3963 22.0034 23.3754 22.2836L23.3729 22.3178C23.3512 22.6103 23.3329 22.8662 23.3329 23.0903C23.3329 23.5253 23.4455 24.1119 23.6133 24.7198C23.7797 25.3231 23.9949 25.9272 24.1878 26.3895C24.2785 26.6067 24.3836 26.789 24.4958 26.9791L24.5178 27.0164C24.6221 27.1929 24.7336 27.3816 24.829 27.5979C25.0397 28.0755 25.1636 28.6662 25.084 29.6357C24.993 30.7441 24.0395 31.3318 23.1597 31.5937C22.7096 31.7276 22.2485 31.7875 21.8627 31.7889C21.6698 31.7897 21.4903 31.7759 21.3369 31.747C21.1912 31.7196 21.0394 31.6735 20.9265 31.5898C20.6333 31.3725 20.3757 31.0413 20.1584 30.6714C19.9392 30.2983 19.7513 29.869 19.6043 29.438C19.4914 29.1071 19.1921 28.8144 18.813 28.561C18.4863 28.3425 18.1357 28.1756 17.8643 28.0464L17.8639 28.0462C17.8246 28.0276 17.787 28.0097 17.7514 27.9925C17.6949 27.9653 17.6152 27.9303 17.5182 27.8878C17.1935 27.7454 16.675 27.518 16.1842 27.2123C15.5487 26.8164 14.8729 26.2405 14.6706 25.4415C14.5151 24.8275 14.5861 24.204 14.7283 23.6848C14.8705 23.1654 15.0895 22.7294 15.2548 22.4788C15.1469 22.785 15.0378 23.1399 15.0105 23.8496C15.0105 24.3955 15.0748 24.8145 15.1997 25.3075C15.3478 25.8922 15.8655 26.3705 16.4728 26.7488C16.9249 27.0305 17.3786 27.2297 17.7051 27.3731C17.8157 27.4216 17.9117 27.4638 17.9881 27.5006C18.0207 27.5163 18.0561 27.5331 18.0939 27.551L18.0955 27.5518C18.3648 27.6798 18.7538 27.8647 19.1164 28.1071C19.5257 28.3808 19.9491 28.758 20.1209 29.2617C20.2586 29.6653 20.4321 30.0596 20.629 30.3948C20.8278 30.7332 21.041 30.9951 21.2515 31.1512C21.2645 31.1608 21.3187 31.1881 21.4377 31.2105C21.549 31.2314 21.6928 31.2436 21.8606 31.243C22.1962 31.2417 22.6055 31.189 23.0041 31.0704C23.8216 30.8271 24.4777 30.3495 24.54 29.5911C24.6137 28.6938 24.4967 28.1972 24.3296 27.8183C24.2477 27.6324 24.1516 27.4697 24.0444 27.2882L24.0257 27.2566C23.9127 27.0651 23.7906 26.8547 23.6841 26.5998C23.4829 26.1176 23.2601 25.4918 23.0871 24.8651C22.9154 24.2431 22.7871 23.5998 22.7871 23.0903C22.7871 22.8422 22.8072 22.5655 22.8286 22.2774L22.8309 22.2465C22.8518 21.9641 22.874 21.6663 22.883 21.3528C22.9017 20.7041 22.8637 20.0009 22.6455 19.2821C22.4223 18.5465 22.115 17.8692 21.5775 17.2813L21.5069 17.204C21.4429 17.1338 21.3771 17.0616 21.3088 16.9882L25.7047 7.21121L19.6501 15.7287C19.5244 15.6722 19.3919 15.6199 19.2517 15.5728L19.2361 15.5676L19.2108 15.5592L19.2013 15.5561C19.1962 15.5544 19.1911 15.5527 19.1861 15.5511L19.161 15.543L19.136 15.535C16.6613 14.7443 14.1188 14.9681 10.1549 17.0766C7.00131 18.754 5.0473 22.6291 4.59442 25.7259C4.43754 26.7987 4.43392 30.8732 5.93717 33.761C7.22318 35.0755 8.69188 36.2104 10.3022 37.1246C10.5323 37.2552 10.7652 37.3813 11.0009 37.5028C13.6978 38.8927 16.7574 39.6774 20.0003 39.6774Z" fill="white"></path>
<path fill-rule="evenodd" clip-rule="evenodd" d="M39.9853 19.2272C39.5793 8.54329 30.7907 0 20 0C8.9503 0 0 8.95829 0 20C0 25.4253 2.16076 30.3476 5.66963 33.9514L5.6699 33.9519L5.70325 33.986C9.33321 37.6961 14.3975 40 20 40C31.0497 40 40 31.0417 40 20C40 19.7412 39.9951 19.4836 39.9853 19.2272ZM20 0.641711C9.31733 0.641711 0.65005 9.30473 0.65005 20C0.65005 24.6027 2.25521 28.829 4.93538 32.1504L6.20426 33.5741C9.66085 37.0896 14.4494 39.2895 19.75 39.3567C19.8332 39.3578 19.9165 39.3583 20 39.3583C30.6827 39.3583 39.3499 30.6953 39.3499 20C39.3499 19.7083 39.3435 19.4181 39.3307 19.1296C39.3247 18.9922 39.1159 17.0603 39.107 16.9237C37.6337 7.69165 29.6369 0.641711 20 0.641711Z" fill="#F07D29"></path>
</svg><style>@media (prefers-color-scheme: light) { :root { filter: none; } }
@media (prefers-color-scheme: dark) { :root { filter: none; } }
</style></svg>