<svg width="60" height="60" viewBox="0 0 60 60" fill="none" xmlns="http://www.w3.org/2000/svg">
<path d="M3 24.9375V25.875H3.5625V26.8125H4.125V25.875H4.6875V24.9375H5.25V24H5.8125V23.0625H6.375V22.125H6.9375V21.1875H6.1875V20.25H5.71875V19.3125H4.03125V20.25H5.15625V21.1875H4.59375V22.125H4.03125V23.0625H3.46875V22.125H3C2.8125 22.875 2.625 23.7188 2.4375 24.4688V24.8438H3V24.9375ZM9.46875 10.7812L9.1875 11.0625H9.46875V10.7812Z" fill="white"/>
<path d="M13.875 7.40625H13.3125V8.34375H12.75V9.28125H12.1875V10.2187H11.625V11.1562H11.0625V10.2187H10.5V9.75L9.9375 10.3125V11.1562H10.5V12.0937H11.0625V13.0312H10.5V13.9687H9.9375V14.9062H9.375V13.9687H8.90625V13.0312H8.4375V12.0937C8.25 12.2812 8.0625 12.5625 7.875 12.75V13.0312H7.6875C7.5 13.125 7.40625 13.2188 7.3125 13.4062V13.875H6.9375C6.84375 13.9688 6.84375 14.0625 6.75 14.1562V14.7188H6.375C6.1875 15 6 15.375 5.8125 15.6562H6.28125V16.5938H6.84375V17.5312H7.40625V18.4688H7.96875V19.4062H8.4375V18.4688H9V17.5312H9.5625V16.5938H10.125V15.6562H10.6875V14.7188H11.25V13.7812H11.8125V14.7188H12.1875V15.6562H12.75V16.5938H13.3125V17.5312H13.875V18.4688H14.4375V16.5938H13.875V15.6562H14.4375V12.9375H13.875V13.875H13.3125V14.8125H12.75V13.875H12.1875V12.9375H11.625V12H12.1875V11.0625H12.75V10.125H13.3125V11.0625H13.875V12H14.4375V9.1875H13.875V8.25H14.4375V6.65625C14.25 6.75 14.0625 6.9375 13.875 7.03125V7.40625ZM8.4375 16.5938H7.875V14.7188H8.4375V16.5938ZM2.4375 33.1875V32.25H3V31.3125H3.5625V30.375H4.125V29.4375H3.46875V28.5H3V27.5625H2.4375V26.625H2.0625C1.96875 27.8437 1.875 28.875 1.875 30C1.875 31.125 1.96875 32.1562 2.0625 33.1875H2.4375ZM13.875 27.6562H13.3125V28.5937H12.75V29.5312H12.1875V30.4687H12.75V31.4062H13.3125V32.3437H13.875V33.1875H14.3438V26.8125H13.875V27.6562Z" fill="white"/>
<path d="M8.90625 11.3438C8.71875 11.5312 8.53125 11.8125 8.34375 12H8.90625V11.3438ZM9.1875 48.9375L9.46875 49.2188V48.9375H9.1875ZM8.4375 48C8.625 48.1875 8.8125 48.4688 9 48.6562V48H8.4375Z" fill="white"/>
<path d="M13.875 51.6562V50.7187H14.4375V47.9062H13.875V48.8437H13.3125V49.7812H12.75V48.8437H12.1875V47.9062H11.625V46.9687H12.1875V46.0312H12.75V45.0937H13.3125V46.0312H13.875V46.9687H14.4375V44.1562H13.875V43.2187H14.4375V41.3437H13.875V42.2812H13.3125V43.2187H12.75V44.1562H12.1875V45.0937H11.625V46.0312H11.0625V45.0937H10.5V44.1562H9.9375V43.2187H9.375V42.2812H8.90625V41.3437H8.4375V40.4062H7.875V41.3437H7.3125V42.2812H6.75V43.2187H6.1875V44.1562H5.8125C6 44.4375 6.1875 44.8125 6.375 45.0937H6.75V45.6562C6.84375 45.75 6.84375 45.8438 6.9375 45.9375H7.3125V46.4062C7.40625 46.7812 7.5 46.875 7.6875 47.0625H7.875V47.3438C8.0625 47.5312 8.25 47.8125 8.4375 48V47.0625H9V46.125H9.5625V45.1875H10.125V46.125H10.6875V47.0625H11.25V48H10.6875V48.9375H10.125V49.7812L10.6875 50.3438V49.875H11.25V48.9375H11.8125V49.875H12.1875V50.8125H12.75V51.75H13.3125V52.6875H13.875V53.0625C14.0625 53.1562 14.25 53.3438 14.4375 53.4375V51.75L13.875 51.6562ZM8.4375 45.1875H7.875V43.3125H8.4375V45.1875ZM13.875 35.0625H13.3125V34.125H12.75V33.1875H12.1875V34.125H11.625V35.0625H11.1562V36H10.5938V36.9375H10.0313V37.875H9.46875V38.7187H10.0313V39.6562H10.5938V40.5937H12.1875V39.6562H11.1562V38.7187H11.625V37.875H12.1875V36.9375H12.75V37.875H13.3125V38.7187H13.875V39.6562H14.3438V37.875H13.875V36.9375H14.3438V36H13.875V35.0625ZM13.875 21.2812H13.3125V22.125H12.75V23.0625H12.1875V22.125H11.625V21.2812H11.1562V20.3438H12.1875V19.4062H10.5938V20.3438H10.0313V21.2812H9.46875V22.125H10.0313V23.0625H10.5938V24H11.1562V24.9375H11.625V25.875H12.1875V26.8125H12.75V25.875H13.3125V24.9375H13.875V24H14.3438V23.0625H13.875V22.125H14.3438V20.3438H13.875V21.2812ZM3.46875 36.9375H4.03125V37.875H4.59375V38.8125H5.15625V39.75H4.03125V40.6875H5.625V39.75H6.1875V38.8125H6.75V37.875H6.1875V36.9375H5.71875V36H5.15625V35.0625H4.59375V34.125H4.03125V33.1875H3.46875V34.125H3V35.0625H2.4375V35.4375C2.625 36.2812 2.8125 37.0312 3 37.7812H3.46875V36.9375ZM9.46875 24.9375H8.90625V24H8.4375V23.0625H7.875V24H7.3125V24.9375H6.75V25.875H6.1875V26.8125H5.71875V27.75H5.15625V32.4375H5.71875V33.375H6.28125V34.3125H6.84375V35.25H7.40625V36.1875H7.96875V37.125H8.4375V36.1875H9V35.25H9.5625V34.3125H10.125V33.375H10.6875V32.4375H11.25V27.75H10.6875V26.8125H10.125V25.875H9.5625L9.46875 24.9375ZM6.1875 29.9062V30.4687H5.71875V29.5312H6.28125V29.9062H6.1875ZM10.0313 30.0937V29.5312H10.5938V30.4687H10.0313V30.0937ZM7.875 24.9375H8.4375V25.875H7.875V24.9375ZM8.4375 35.0625H7.875V34.125H8.4375V35.0625ZM9.46875 28.5937H8.90625V29.5312H8.4375V30.4687H9V31.4062H9.5625V33.2812H8.90625V32.3437H8.4375V31.4062H7.875V32.3437H7.3125V33.2812H6.75V31.4062H7.3125V30.4687H7.875V29.5312H7.3125V28.5937H6.75V26.7187H7.3125V27.6562H7.875V28.5937H8.4375V27.6562H9V26.7187H9.5625L9.46875 28.5937Z" fill="white"/>
<path d="M6.75 14.1562C6.65625 14.3438 6.46875 14.5312 6.375 14.7187H6.75V14.1562ZM7.3125 13.875V13.4062C7.21875 13.5938 7.125 13.6875 6.9375 13.875H7.3125ZM7.875 12.9375V12.6562C7.78125 12.75 7.78125 12.8438 7.6875 12.9375H7.875ZM5.71875 29.9062V30.4687H6.1875V29.5312H5.71875V29.9062ZM13.875 15.75H14.4375V16.6875H13.875V15.75ZM8.90625 12.9375V13.875H9.46875V14.8125H10.0312V13.875H10.5938V12.9375H11.1562V12H10.5938V11.0625H10.0312V10.2187L9.46875 10.7812V11.0625H9.1875L8.90625 11.3438V12H8.4375V12.9375H8.90625ZM13.875 8.34375H14.4375V9.28125H13.875V8.34375ZM13.875 11.0625H13.3125V10.2187H12.75V11.0625H12.1875V12H11.625V12.9375H12.1875V13.875H12.75V14.8125H13.3125V13.875H13.875V12.9375H14.3438V12H13.875V11.0625ZM11.1562 10.2187V11.1562H11.7188V10.2187H12.1875V9.28125H12.75V8.34375H13.3125V7.40625H13.875V7.03125C12.8438 7.78125 11.8125 8.53125 10.9688 9.375C10.875 9.46875 10.7813 9.5625 10.5938 9.65625V10.125H11.1562V10.2187ZM8.0625 14.8125H7.875V16.5938H8.4375V14.8125H8.15625H8.0625ZM8.90625 27.6562H8.4375V28.5937H7.875V27.6562H7.3125V26.8125H6.75V28.5937H7.3125V29.5312H7.875V30.4687H7.3125V31.4062H6.75V33.1875H7.3125V32.3437H7.875V31.4062H8.4375V32.3437H8.90625V33.1875H9.46875V31.4062H8.90625V30.4687H8.4375V29.5312H8.90625V28.5937H9.46875V26.8125H8.90625V27.6562ZM13.875 22.125H14.4375V23.0625H13.875V22.125Z" fill="#C8313E"/>
<path d="M13.875 17.5313H13.3125V16.5938H12.75V15.6563H12.1875V14.7188H11.625V13.7812H11.0625V14.7188H10.5V15.6563H9.9375V16.5938H9.375V17.5313H8.90625V18.4688H8.4375V19.4063H7.875V18.4688H7.3125V17.5313H6.75V16.5938H6.1875V15.6563H5.8125C5.25 16.5938 4.6875 17.625 4.21875 18.6562C3.75 19.7812 3.375 20.9062 3 22.0312H3.46875V22.9688H4.03125V22.0312H4.59375V21.0938H5.15625V20.1562H4.03125V19.2188H5.625V20.1562H6.1875V21.0938H6.75V22.0312H6.1875V22.9688H5.71875V23.9062H5.15625V24.8438H4.59375V25.7812H4.03125V26.7188H3.46875V25.7812H3V24.8438H2.4375V24.4688C2.25 25.2188 2.15625 25.9688 2.0625 26.7188H2.4375V27.6562H3V28.5938H3.5625V29.5312H4.125V30.4688H3.46875V31.4062H3V32.3438H2.4375V33.2812H2.0625C2.15625 34.0312 2.25 34.7812 2.4375 35.5312V35.1562H3V34.2188H3.5625V33.2812H4.125V34.2188H4.6875V35.1562H5.25V36.0938H5.8125V37.0312H6.375V37.9688H6.9375V38.9062H6.1875V39.8438H5.71875V40.7812H4.03125V39.8438H5.15625V38.9062H4.59375V37.9688H4.03125V37.0312H3.46875V37.9688H3C3.375 39 3.75 40.125 4.21875 41.25C4.6875 42.2812 5.25 43.3125 5.8125 44.25H6.28125V43.3125H6.84375V42.375H7.40625V41.4375H7.96875V40.5H8.4375V41.4375H9V42.375H9.5625V43.3125H10.125V44.25H10.6875V45.1875H11.25V46.125H11.8125V45.1875H12.1875V44.25H12.75V43.3125H13.3125V42.375H13.875V41.4375H14.4375V39.5625H13.875V38.625H13.3125V37.6875H12.75V36.75H12.1875V37.6875H11.625V38.625H11.0625V39.5625H12.1875V40.5H10.5938V39.5625H10.0312V38.625H9.46875V37.6875H10.0312V36.75H10.5938V35.8125H11.1562V34.875H11.7188V33.9375H12.1875V33H12.75V33.9375H13.3125V34.875H13.875V35.8125H14.4375V33H13.875V32.0625H13.3125V31.125H12.75V30.1875H12.1875V29.25H12.75V28.3125H13.3125V27.375H13.875V26.4375H14.4375V23.625H13.875V24.5625H13.3125V25.5H12.75V26.4375H12.1875V25.5H11.625V24.5625H11.0625V23.625H10.5V22.6875H9.9375V21.75H9.375V20.8125H9.9375V19.875H10.5V18.9375H12.1875V19.875H11.0625V20.8125H11.625V21.75H12.1875V22.6875H12.75V21.75H13.3125V20.8125H13.875V19.875H14.4375V18H13.875V17.5313ZM10.0312 25.875V26.8125H10.5938V27.75H11.1562V32.4375H10.5938V33.375H10.0312V34.3125H9.46875V35.25H8.90625V36.1875H8.4375V37.125H7.875V36.1875H7.3125V35.25H6.75V34.3125H6.1875V33.375H5.71875V32.4375H5.15625V27.75H5.71875V26.8125H6.28125V25.875H6.84375V24.9375H7.40625V24H7.96875V23.0625H8.4375V24H9V24.9375H9.5625V25.875H10.0312Z" fill="#C8313E"/>
<path d="M8.15625 25.875H8.4375V24.9375H7.875V25.875H8.0625H8.15625ZM6.75 45.1875H6.375C6.46875 45.375 6.65625 45.5625 6.75 45.75V45.1875ZM7.3125 46.125H6.9375C7.03125 46.3125 7.125 46.4062 7.3125 46.5938V46.125ZM7.875 47.0625H7.6875C7.78125 47.1562 7.78125 47.25 7.875 47.3438V47.0625ZM13.875 43.4062H14.4375V44.3437H13.875V43.4062ZM13.875 46.125H13.3125V45.1875H12.75V46.125H12.1875V47.0625H11.625V48H12.1875V48.9375H12.75V49.7812H13.3125V48.9375H13.875V48H14.3437V47.0625H13.875V46.125ZM8.90625 48V48.6563L9.1875 48.9375H9.46875V49.2188L10.0312 49.7812V48.9375H10.5937V48H11.1562V47.0625H10.5937V46.125H10.0312V45.1875H9.46875V46.125H8.90625V47.0625H8.4375V48H8.90625ZM13.875 50.7187H14.4375V51.6562H13.875V50.7187ZM10.875 50.625C11.8125 51.4688 12.75 52.3125 13.7812 52.9688V52.5937H13.2187V51.6562H12.6562V50.7187H12.1875V49.7812H11.625V48.8437H11.0625V49.7812H10.5V50.25L10.875 50.625ZM8.0625 43.4062H7.875V45.1875H8.4375V43.4062H8.15625H8.0625ZM13.875 36.9375H14.4375V37.875H13.875V36.9375ZM10.5937 30.0937V29.5312H10.0312V30.4687H10.5937V30.0937ZM8.0625 34.125H7.875V35.0625H8.4375V34.125H8.15625H8.0625Z" fill="#C8313E"/>
<path d="M14.3438 41.25V53.3438C18.8438 56.3438 24.1875 58.125 30 58.125C37.4062 58.125 44.0625 55.3125 49.125 50.625C51.9375 48 54.2812 44.8125 55.7812 41.25H14.3438Z" fill="#83BF4F"/>
<path d="M55.7812 41.25C57.2812 37.7812 58.125 34.0312 58.125 30C58.125 25.9688 57.2812 22.2188 55.7812 18.75C54.1875 15.1875 51.9375 12 49.125 9.375C44.0625 4.6875 37.4062 1.875 30 1.875C24.1875 1.875 18.8438 3.65625 14.3438 6.65625V41.25H55.7812Z" fill="#C94747"/>
</svg>
