<svg width="60" height="60" viewBox="0 0 60 60" fill="none" xmlns="http://www.w3.org/2000/svg">
<path d="M29.9062 1.875C17.7187 1.875 7.3125 9.75 3.46875 20.625H56.5312C52.5938 9.75 42.1875 1.875 29.9062 1.875Z" fill="#F6F6F6"/>
<path d="M29.9062 58.125C42.1875 58.125 52.5938 50.25 56.4375 39.375H3.46875C7.3125 50.3438 17.7187 58.125 29.9062 58.125Z" fill="#ED4C5C"/>
<path d="M3.46875 20.625C2.4375 23.5312 1.875 26.7188 1.875 30C1.875 33.2812 2.4375 36.4688 3.46875 39.375H56.5312C57.5625 36.4688 58.125 33.2812 58.125 30C58.125 26.7188 57.5625 23.5312 56.5312 20.625H3.46875Z" fill="#428BC1"/>
</svg>
