<svg width="48" height="48" viewBox="0 0 48 48" fill="none" xmlns="http://www.w3.org/2000/svg">
<rect x="0.000244141" width="48" height="48" rx="10" fill="#E14459"/>
<path d="M13.215 5.00071C12.7775 5.02449 12.7992 5.66884 12.7992 5.66884C15.151 10.3095 19.4802 12.5851 24.4732 12.5856C29.4594 12.5783 33.8317 10.2772 36.1801 5.64336C36.1801 5.64336 36.2728 4.77083 35.3565 5.07319C32.9483 9.11818 28.9029 11.511 24.476 11.5183C20.0412 11.5195 16.0098 9.15158 13.5971 5.09923C13.4407 5.02279 13.3161 4.99505 13.215 5.00071ZM29.1281 23.0367L27.7905 27.0738L26.4886 23.0395H25.2174L27.2692 28.9088H28.2587L29.5997 25.0535L30.9385 28.9088H31.9364L33.9842 23.0401H32.7449L31.4402 27.0743L30.1026 23.0373L29.1281 23.0367ZM22.0231 23.0384L19.4277 28.9049H20.6474L21.1486 27.7691L21.1844 27.6836H23.8809L24.4095 28.9049H25.6628L23.0908 23.0729L23.0685 23.0384H22.0231ZM40.8205 23.0384V28.9015H42V23.039L40.8205 23.0384ZM7 23.0395V28.9105H8.19572V26.5262H10.8945V28.91H12.0908V23.0401H10.895V25.4085H8.19628V23.0401L7 23.0395ZM17.624 23.0412V26.4017C17.624 27.3557 17.1491 27.8653 16.2847 27.8653C15.4164 27.8653 14.9381 27.3416 14.9381 26.3609V23.0446H13.7419V26.4017C13.7419 28.0533 14.6638 29 16.2691 29C17.8894 29 18.8186 28.0352 18.8186 26.353V23.0407L17.624 23.0412ZM34.9486 23.0435V28.906H39.3979V27.837H36.1276V26.3836H38.3016V25.3134H36.1276V24.1131H39.2845V23.0441L34.9486 23.0435ZM22.5293 24.5236L23.3819 26.4894L23.4401 26.6248H21.6314L21.6884 26.4894L22.5293 24.5236Z" fill="white"/>
</svg>
