<svg width="191" height="56" viewBox="0 0 191 56" fill="none" xmlns="http://www.w3.org/2000/svg">
<path fill-rule="evenodd" clip-rule="evenodd" d="M0.441528 27.9974C0.441528 13.2474 12.3963 1.29004 27.1433 1.29004C41.1819 1.29004 52.6901 12.1262 53.7633 25.8922C53.7089 25.1947 53.6276 24.5046 53.5206 23.8231C53.071 26.6948 51.6434 30.1518 46.4039 31.7056C40.7847 33.3719 36.5863 31.5932 33.7103 30.3747C32.9918 30.0703 32.3558 29.8008 31.8008 29.6288C31.7998 29.7057 31.7982 29.7818 31.796 29.8572C31.7832 30.2998 31.7521 30.7188 31.7238 31.099L31.7204 31.1454C31.6909 31.5424 31.6661 31.8897 31.6661 32.1938C31.6661 32.7841 31.8189 33.5803 32.0466 34.4053C32.2725 35.224 32.5645 36.0439 32.8264 36.6712C32.9494 36.9661 33.092 37.2134 33.2443 37.4715L33.2742 37.5221C33.4157 37.7616 33.567 38.0177 33.6965 38.3113C33.9824 38.9595 34.1506 39.7611 34.0426 41.0769C33.9191 42.5812 32.625 43.3788 31.4311 43.7341C30.8203 43.9159 30.1944 43.9971 29.6708 43.9991C29.4091 44.0001 29.1654 43.9814 28.9572 43.9422C28.7596 43.9051 28.5535 43.8424 28.4003 43.7288C28.0024 43.4339 27.6527 42.9845 27.3578 42.4825C27.0604 41.9761 26.8054 41.3935 26.6059 40.8085C26.4527 40.3595 26.0464 39.9623 25.532 39.6183C25.0886 39.3218 24.6128 39.0954 24.2444 38.92L24.2439 38.9198C24.1906 38.8944 24.1395 38.8701 24.0911 38.8468C24.0145 38.8099 23.9063 38.7625 23.7747 38.7047C23.3341 38.5115 22.6304 38.2028 21.9643 37.7879C21.1019 37.2506 20.1846 36.469 19.9101 35.3848C19.699 34.5514 19.7955 33.7053 19.9884 33.0006C20.1814 32.2957 20.4787 31.7041 20.7029 31.3639C20.5566 31.7795 20.4084 32.2611 20.3714 33.2243C20.3714 33.9652 20.4587 34.5339 20.6282 35.2028C20.8291 35.9964 21.5317 36.6455 22.3559 37.159C22.9695 37.5412 23.5853 37.8116 24.0284 38.0062C24.1784 38.072 24.3087 38.1293 24.4124 38.1792C24.4567 38.2005 24.5047 38.2233 24.556 38.2477L24.5581 38.2487C24.9237 38.4225 25.4516 38.6734 25.9437 39.0023C26.4992 39.3738 27.0737 39.8856 27.307 40.5693C27.4938 41.117 27.7293 41.6522 27.9965 42.1071C28.2663 42.5664 28.5556 42.9218 28.8413 43.1336C28.859 43.1467 28.9325 43.1837 29.0941 43.214C29.2451 43.2424 29.4403 43.2591 29.668 43.2582C30.1234 43.2565 30.679 43.1849 31.2198 43.024C32.3293 42.6937 33.2198 42.0457 33.3043 41.0163C33.4043 39.7985 33.2456 39.1246 33.0188 38.6103C32.9076 38.3582 32.7771 38.1373 32.6317 37.8909L32.6063 37.848C32.453 37.5882 32.2872 37.3027 32.1428 36.9567C31.8697 36.3024 31.5673 35.453 31.3325 34.6025C31.0995 33.7583 30.9254 32.8853 30.9254 32.1938C30.9254 31.8572 30.9526 31.4816 30.9816 31.0905L30.9848 31.0486C31.0132 30.6654 31.0433 30.2612 31.0555 29.8358C31.0809 28.9555 31.0293 28.001 30.7333 27.0255C30.4303 26.0272 30.0132 25.108 29.2837 24.3102L29.1879 24.2052C29.1011 24.11 29.0118 24.012 28.9191 23.9124L34.885 10.6436L26.668 22.2031C26.4974 22.1264 26.3176 22.0554 26.1274 21.9914L26.1062 21.9844L26.0718 21.973L26.0589 21.9688C26.052 21.9665 26.0451 21.9643 26.0383 21.9621C26.027 21.9584 26.0156 21.9547 26.0043 21.9511C25.993 21.9474 25.9816 21.9438 25.9703 21.9402C22.6118 20.8671 19.1612 21.1708 13.7817 24.0323C9.50181 26.3089 6.84994 31.5679 6.23531 35.7707C6.0224 37.2266 6.01749 42.7564 8.05761 46.6755C3.34597 41.8596 0.441528 35.2678 0.441528 27.9974ZM13.9816 51.2404C11.7962 49.9997 9.80306 48.4597 8.05783 46.6759L8.05761 46.6755C9.80291 48.4594 11.7961 49.9996 13.9816 51.2404Z" fill="#F07D29"/>
<path d="M27.1433 54.7049C41.8903 54.7049 53.845 42.7475 53.845 27.9974C53.845 27.4267 53.8271 26.8601 53.7919 26.2982C53.7834 26.1626 53.7738 26.0273 53.7633 25.8922C53.7089 25.1947 53.6276 24.5046 53.5206 23.8231C53.071 26.6948 51.6434 30.1518 46.4039 31.7056C40.7847 33.3719 36.5863 31.5932 33.7103 30.3747C32.9918 30.0703 32.3558 29.8008 31.8008 29.6288C31.7998 29.7057 31.7982 29.7818 31.796 29.8572C31.7832 30.2998 31.7521 30.7188 31.7238 31.099L31.7204 31.1454C31.6909 31.5424 31.6661 31.8897 31.6661 32.1938C31.6661 32.7841 31.8189 33.5803 32.0466 34.4053C32.2725 35.224 32.5645 36.0439 32.8264 36.6712C32.9494 36.9661 33.092 37.2134 33.2443 37.4715L33.2742 37.5221C33.4157 37.7616 33.567 38.0177 33.6965 38.3113C33.9824 38.9595 34.1506 39.7611 34.0426 41.0769C33.9191 42.5812 32.625 43.3788 31.4311 43.7341C30.8203 43.9159 30.1944 43.9971 29.6708 43.9991C29.4091 44.0001 29.1654 43.9814 28.9572 43.9422C28.7596 43.9051 28.5535 43.8424 28.4003 43.7288C28.0024 43.4339 27.6527 42.9845 27.3578 42.4825C27.0604 41.9761 26.8054 41.3935 26.6059 40.8085C26.4527 40.3595 26.0464 39.9623 25.532 39.6183C25.0886 39.3218 24.6128 39.0954 24.2444 38.92L24.2439 38.9198C24.1906 38.8944 24.1395 38.8701 24.0911 38.8468C24.0145 38.8099 23.9063 38.7625 23.7747 38.7047C23.3341 38.5115 22.6304 38.2028 21.9643 37.7879C21.1019 37.2506 20.1846 36.469 19.9101 35.3848C19.699 34.5514 19.7955 33.7053 19.9884 33.0006C20.1814 32.2957 20.4787 31.7041 20.7029 31.3639C20.5566 31.7795 20.4084 32.2611 20.3714 33.2243C20.3714 33.9652 20.4587 34.5339 20.6282 35.2028C20.8291 35.9964 21.5317 36.6455 22.3559 37.159C22.9695 37.5412 23.5853 37.8116 24.0284 38.0062C24.1784 38.072 24.3087 38.1293 24.4124 38.1792C24.4567 38.2005 24.5047 38.2233 24.556 38.2477L24.5581 38.2487C24.9237 38.4225 25.4516 38.6734 25.9437 39.0023C26.4992 39.3738 27.0737 39.8856 27.307 40.5693C27.4938 41.117 27.7293 41.6522 27.9965 42.1071C28.2663 42.5664 28.5556 42.9218 28.8413 43.1336C28.859 43.1467 28.9325 43.1837 29.0941 43.214C29.2451 43.2424 29.4403 43.2591 29.668 43.2582C30.1234 43.2565 30.679 43.1849 31.2198 43.024C32.3293 42.6937 33.2198 42.0457 33.3043 41.0163C33.4043 39.7985 33.2456 39.1246 33.0188 38.6103C32.9076 38.3582 32.7771 38.1373 32.6317 37.8909L32.6063 37.848C32.453 37.5882 32.2872 37.3027 32.1428 36.9567C31.8697 36.3024 31.5673 35.453 31.3325 34.6025C31.0995 33.7583 30.9254 32.8853 30.9254 32.1938C30.9254 31.8572 30.9526 31.4816 30.9816 31.0905L30.9848 31.0486C31.0132 30.6654 31.0433 30.2612 31.0555 29.8358C31.0809 28.9555 31.0293 28.001 30.7333 27.0255C30.4303 26.0272 30.0132 25.108 29.2837 24.3102L29.1879 24.2052C29.1011 24.11 29.0118 24.012 28.9191 23.9124L34.885 10.6436L26.668 22.2031C26.4974 22.1264 26.3176 22.0554 26.1274 21.9914L26.1062 21.9844L26.0718 21.973L26.0589 21.9688C26.052 21.9665 26.0451 21.9643 26.0383 21.9621L26.0043 21.9511L25.9703 21.9402C22.6118 20.8671 19.1612 21.1708 13.7817 24.0323C9.50181 26.3089 6.84994 31.5679 6.23531 35.7707C6.0224 37.2266 6.01749 42.7564 8.05761 46.6755C9.80291 48.4594 11.7961 49.9996 13.9816 51.2404C14.2938 51.4176 14.6099 51.5887 14.9298 51.7536C18.5899 53.6399 22.7423 54.7049 27.1433 54.7049Z" fill="white"/>
<path fill-rule="evenodd" clip-rule="evenodd" d="M54.2658 26.9509C53.7148 12.4514 41.7874 0.856934 27.1429 0.856934C12.1468 0.856934 0 13.0146 0 27.9998C0 35.3626 2.93246 42.0429 7.6945 46.9338L7.69487 46.9345L7.74013 46.9808C12.6665 52.0159 19.5395 55.1426 27.1429 55.1426C42.1389 55.1426 54.2857 42.985 54.2857 27.9998C54.2857 27.6486 54.279 27.2989 54.2658 26.9509ZM27.1429 1.72783C12.6449 1.72783 0.882211 13.4848 0.882211 27.9998C0.882211 34.2463 3.06064 39.982 6.69802 44.4897L8.42007 46.4218C13.1112 51.1928 19.6099 54.1785 26.8036 54.2696C26.9165 54.271 27.0296 54.2718 27.1429 54.2718C41.6408 54.2718 53.4035 42.5148 53.4035 27.9998C53.4035 27.6039 53.3948 27.2101 53.3774 26.8186C53.3692 26.632 53.0859 24.0103 53.0738 23.8248C51.0743 11.2956 40.2215 1.72783 27.1429 1.72783Z" fill="#F07D29"/>
<path d="M67.8571 16.5576H73.7381L79.9495 31.7116H80.2138L86.4252 16.5576H92.3062V39.1124H87.6807V24.432H87.4935L81.6565 39.0023H78.5068L72.6699 24.3769H72.4826V39.1124H67.8571V16.5576Z" fill="#180B02"/>
<path d="M103.856 39.4428C102.116 39.4428 100.618 39.0904 99.3628 38.3855C98.1147 37.6734 97.1529 36.6675 96.4774 35.368C95.8019 34.0611 95.4642 32.5156 95.4642 30.7315C95.4642 28.9914 95.8019 27.4642 96.4774 26.15C97.1529 24.8358 98.1037 23.8116 99.3298 23.0774C100.563 22.3432 102.01 21.9761 103.669 21.9761C104.785 21.9761 105.824 22.1559 106.786 22.5157C107.755 22.8681 108.599 23.4004 109.319 24.1126C110.046 24.8248 110.611 25.7205 111.015 26.7998C111.418 27.8717 111.62 29.1272 111.62 30.5663V31.8548H97.3364V28.9473H107.204C107.204 28.2719 107.057 27.6735 106.764 27.1522C106.47 26.6309 106.062 26.2234 105.541 25.9297C105.027 25.6287 104.429 25.4782 103.746 25.4782C103.034 25.4782 102.402 25.6434 101.852 25.9738C101.308 26.2969 100.883 26.7337 100.574 27.2844C100.266 27.8277 100.108 28.4334 100.101 29.1015V31.8658C100.101 32.7028 100.255 33.426 100.563 34.0354C100.879 34.6448 101.323 35.1147 101.896 35.4451C102.469 35.7754 103.148 35.9406 103.933 35.9406C104.455 35.9406 104.932 35.8672 105.365 35.7204C105.798 35.5735 106.169 35.3533 106.477 35.0596C106.786 34.7659 107.021 34.4062 107.182 33.9803L111.521 34.2667C111.301 35.3092 110.849 36.2196 110.167 36.9979C109.491 37.7688 108.617 38.3709 107.546 38.804C106.481 39.2299 105.251 39.4428 103.856 39.4428Z" fill="#180B02"/>
<path d="M123.68 22.1963V25.7205H113.493V22.1963H123.68ZM115.805 18.1435H120.497V33.9142C120.497 34.3474 120.563 34.6851 120.695 34.9274C120.827 35.1624 121.011 35.3276 121.246 35.423C121.488 35.5185 121.767 35.5662 122.083 35.5662C122.303 35.5662 122.523 35.5478 122.744 35.5111C122.964 35.4671 123.133 35.434 123.25 35.412L123.988 38.9032C123.753 38.9766 123.423 39.061 122.997 39.1565C122.571 39.2592 122.053 39.3217 121.444 39.3437C120.313 39.3877 119.322 39.2372 118.471 38.8921C117.626 38.5471 116.969 38.0111 116.499 37.2842C116.029 36.5574 115.798 35.6396 115.805 34.531V18.1435Z" fill="#180B02"/>
<path d="M131.56 39.4318C130.48 39.4318 129.518 39.2446 128.674 38.8701C127.83 38.4883 127.162 37.9267 126.67 37.1851C126.185 36.4362 125.943 35.5038 125.943 34.3878C125.943 33.448 126.115 32.6587 126.461 32.02C126.806 31.3812 127.275 30.8673 127.87 30.4782C128.465 30.089 129.14 29.7953 129.897 29.5971C130.66 29.3989 131.46 29.2594 132.297 29.1786C133.281 29.0758 134.074 28.9804 134.676 28.8923C135.278 28.7968 135.715 28.6573 135.987 28.4738C136.258 28.2902 136.394 28.0186 136.394 27.6588V27.5927C136.394 26.8952 136.174 26.3556 135.734 25.9738C135.3 25.592 134.684 25.4011 133.883 25.4011C133.039 25.4011 132.367 25.5883 131.868 25.9628C131.369 26.3299 131.038 26.7924 130.877 27.3504L126.538 26.998C126.758 25.9701 127.191 25.0817 127.837 24.3329C128.483 23.5766 129.317 22.9966 130.337 22.5928C131.365 22.1816 132.554 21.9761 133.905 21.9761C134.845 21.9761 135.745 22.0862 136.604 22.3064C137.47 22.5267 138.237 22.8681 138.905 23.3307C139.581 23.7932 140.113 24.3879 140.502 25.1148C140.891 25.8343 141.086 26.697 141.086 27.7029V39.1124H136.637V36.7666H136.504C136.233 37.2952 135.869 37.7615 135.414 38.1653C134.959 38.5618 134.412 38.8738 133.773 39.1014C133.134 39.3217 132.397 39.4318 131.56 39.4318ZM132.903 36.1939C133.593 36.1939 134.203 36.0581 134.731 35.7865C135.26 35.5075 135.675 35.133 135.976 34.6631C136.277 34.1932 136.427 33.6609 136.427 33.0662V31.2711C136.281 31.3665 136.079 31.4546 135.822 31.5354C135.572 31.6088 135.289 31.6786 134.974 31.7447C134.658 31.8034 134.342 31.8585 134.026 31.9099C133.711 31.9539 133.424 31.9943 133.167 32.031C132.617 32.1118 132.136 32.2402 131.725 32.4165C131.314 32.5927 130.994 32.8313 130.767 33.1323C130.539 33.426 130.425 33.7931 130.425 34.2336C130.425 34.8724 130.656 35.3606 131.119 35.6984C131.589 36.0287 132.184 36.1939 132.903 36.1939Z" fill="#180B02"/>
<path d="M144.814 39.1124V16.5576H160.012V20.4893H149.582V25.8637H159.23V29.7953H149.582V35.1807H160.056V39.1124H144.814Z" fill="#180B02"/>
<path d="M163.715 39.1124V22.1963H168.263V25.1478H168.44C168.748 24.0979 169.266 23.305 169.992 22.769C170.719 22.2257 171.556 21.954 172.503 21.954C172.738 21.954 172.992 21.9687 173.263 21.9981C173.535 22.0274 173.774 22.0678 173.979 22.1192V26.2822C173.759 26.2161 173.454 26.1574 173.065 26.106C172.676 26.0546 172.32 26.0289 171.997 26.0289C171.307 26.0289 170.69 26.1794 170.147 26.4804C169.611 26.7741 169.185 27.1852 168.869 27.7139C168.561 28.2425 168.407 28.8519 168.407 29.542V39.1124H163.715Z" fill="#180B02"/>
<path d="M180.744 39.4318C179.665 39.4318 178.703 39.2446 177.859 38.8701C177.014 38.4883 176.346 37.9267 175.854 37.1851C175.37 36.4362 175.127 35.5038 175.127 34.3878C175.127 33.448 175.3 32.6587 175.645 32.02C175.99 31.3812 176.46 30.8673 177.055 30.4782C177.649 30.089 178.325 29.7953 179.081 29.5971C179.845 29.3989 180.645 29.2594 181.482 29.1786C182.466 29.0758 183.259 28.9804 183.861 28.8923C184.463 28.7968 184.9 28.6573 185.171 28.4738C185.443 28.2902 185.579 28.0186 185.579 27.6588V27.5927C185.579 26.8952 185.358 26.3556 184.918 25.9738C184.485 25.592 183.868 25.4011 183.068 25.4011C182.223 25.4011 181.552 25.5883 181.052 25.9628C180.553 26.3299 180.223 26.7924 180.061 27.3504L175.722 26.998C175.942 25.9701 176.375 25.0817 177.022 24.3329C177.668 23.5766 178.501 22.9966 179.522 22.5928C180.549 22.1816 181.739 21.9761 183.09 21.9761C184.03 21.9761 184.929 22.0862 185.788 22.3064C186.654 22.5267 187.422 22.8681 188.09 23.3307C188.765 23.7932 189.297 24.3879 189.687 25.1148C190.076 25.8343 190.27 26.697 190.27 27.7029V39.1124H185.821V36.7666H185.689C185.417 37.2952 185.054 37.7615 184.599 38.1653C184.143 38.5618 183.596 38.8738 182.958 39.1014C182.319 39.3217 181.581 39.4318 180.744 39.4318ZM182.088 36.1939C182.778 36.1939 183.387 36.0581 183.916 35.7865C184.444 35.5075 184.859 35.133 185.16 34.6631C185.461 34.1932 185.612 33.6609 185.612 33.0662V31.2711C185.465 31.3665 185.263 31.4546 185.006 31.5354C184.756 31.6088 184.474 31.6786 184.158 31.7447C183.842 31.8034 183.527 31.8585 183.211 31.9099C182.895 31.9539 182.609 31.9943 182.352 32.031C181.801 32.1118 181.32 32.2402 180.909 32.4165C180.498 32.5927 180.179 32.8313 179.951 33.1323C179.723 33.426 179.61 33.7931 179.61 34.2336C179.61 34.8724 179.841 35.3606 180.303 35.6984C180.773 36.0287 181.368 36.1939 182.088 36.1939Z" fill="#180B02"/>
</svg>
