<svg width="60" height="60" viewBox="0 0 60 60" fill="none" xmlns="http://www.w3.org/2000/svg">
<path d="M5.72461 19.4499V43.7749C5.72461 48.5249 9.09961 50.4749 13.1996 48.1249L19.0746 44.7749C20.3496 44.0499 22.4746 43.9749 23.7996 44.6499L36.9246 51.2249C38.2496 51.8749 40.3746 51.8249 41.6496 51.0999L52.4746 44.8999C53.8496 44.0999 54.9996 42.1499 54.9996 40.5499V16.2249C54.9996 11.4749 51.6246 9.52494 47.5246 11.8749L41.6496 15.2249C40.3746 15.9499 38.2496 16.0249 36.9246 15.3499L23.7996 8.79994C22.4746 8.14994 20.3496 8.19994 19.0746 8.92494L8.24961 15.1249C6.84961 15.9249 5.72461 17.8749 5.72461 19.4499Z" stroke="white" stroke-width="2" stroke-linecap="round" stroke-linejoin="round"/>
<path d="M21.4004 10V42.5" stroke="white" stroke-width="2" stroke-linecap="round" stroke-linejoin="round"/>
<path d="M39.3252 16.5498V49.9998" stroke="white" stroke-width="2" stroke-linecap="round" stroke-linejoin="round"/>
</svg>
