<svg width="40" height="40" viewBox="0 0 40 40" fill="none" xmlns="http://www.w3.org/2000/svg">
<path d="M20 31.6666C25.5167 31.6666 30 27.1833 30 21.6666V13.3333C30 7.81659 25.5167 3.33325 20 3.33325C14.4833 3.33325 10 7.81659 10 13.3333V21.6666C10 27.1833 14.4833 31.6666 20 31.6666Z" stroke="#00469A" stroke-width="2" stroke-linecap="round" stroke-linejoin="round"/>
<path d="M5 18.3333V21.6666C5 29.9499 11.7167 36.6666 20 36.6666C28.2833 36.6666 35 29.9499 35 21.6666V18.3333" stroke="#00469A" stroke-width="2" stroke-linecap="round" stroke-linejoin="round"/>
<path d="M15.1833 12.4666C18.15 11.3832 21.3833 11.3832 24.35 12.4666" stroke="#00469A" stroke-width="2" stroke-linecap="round" stroke-linejoin="round"/>
<path d="M16.7167 17.4667C18.7167 16.9167 20.8333 16.9167 22.8333 17.4667" stroke="#00469A" stroke-width="2" stroke-linecap="round" stroke-linejoin="round"/>
</svg>
