<svg width="40" height="40" viewBox="0 0 40 40" fill="none" xmlns="http://www.w3.org/2000/svg">
<path d="M31.6666 26.6667V10.8333C31.6666 9 30.1666 7.5 28.3333 7.5H20.8333" stroke="#0E80D4" stroke-width="2" stroke-linecap="round" stroke-linejoin="round"/>
<path d="M25 3.33325L20 7.49992L25 11.6666" stroke="#0E80D4" stroke-width="2" stroke-linecap="round" stroke-linejoin="round"/>
<path d="M8.33331 15V26.6667" stroke="#0E80D4" stroke-width="2" stroke-linecap="round" stroke-linejoin="round"/>
<path d="M8.74998 14.1666C11.7415 14.1666 14.1666 11.7415 14.1666 8.74992C14.1666 5.75838 11.7415 3.33325 8.74998 3.33325C5.75844 3.33325 3.33331 5.75838 3.33331 8.74992C3.33331 11.7415 5.75844 14.1666 8.74998 14.1666Z" stroke="#0E80D4" stroke-width="2" stroke-linecap="round" stroke-linejoin="round"/>
<path d="M8.33331 36.6667C11.0947 36.6667 13.3333 34.4282 13.3333 31.6667C13.3333 28.9053 11.0947 26.6667 8.33331 26.6667C5.57189 26.6667 3.33331 28.9053 3.33331 31.6667C3.33331 34.4282 5.57189 36.6667 8.33331 36.6667Z" stroke="#0E80D4" stroke-width="2" stroke-linecap="round" stroke-linejoin="round"/>
<path d="M31.6667 36.6667C34.4281 36.6667 36.6667 34.4282 36.6667 31.6667C36.6667 28.9053 34.4281 26.6667 31.6667 26.6667C28.9053 26.6667 26.6667 28.9053 26.6667 31.6667C26.6667 34.4282 28.9053 36.6667 31.6667 36.6667Z" stroke="#0E80D4" stroke-width="2" stroke-linecap="round" stroke-linejoin="round"/>
</svg>
