<svg width="48" height="48" viewBox="0 0 48 48" fill="none" xmlns="http://www.w3.org/2000/svg">
<rect x="0.000244141" width="48" height="48" rx="10" fill="#0077FF"/>
<path d="M27.9469 9.067C26.7202 9.05495 25.6536 10.043 25.6536 11.3337V14.091L19.8936 12.6563C19.7144 12.6116 19.5357 12.5891 19.3602 12.5875C18.1336 12.5755 17.0669 13.5635 17.0669 14.8542V17.6009L11.3602 16.1769C9.92557 15.8195 8.53357 16.9022 8.53357 18.3742V33.6809C8.53357 34.9822 9.4189 36.1129 10.6829 36.4275L19.8029 38.6995C21.2376 39.0569 22.6296 37.9742 22.6296 36.5022V21.1955C22.6296 20.2622 22.1725 19.4195 21.4509 18.9022C21.4394 18.8645 21.442 18.8227 21.4655 18.7886C21.5055 18.7305 21.5775 18.7027 21.6447 18.723C22.8447 19.0857 23.986 20.3123 24.1033 21.859L24.4991 33.539C24.5092 33.9305 24.7705 34.2643 25.1391 34.387L28.3391 35.1817C29.7737 35.539 31.1657 34.4563 31.1657 32.9843C31.2035 27.9337 31.1926 22.7977 31.1939 17.731C31.1939 17.043 30.9614 16.515 30.7 16.131C30.6577 16.067 30.6131 16.0041 30.5656 15.9433C30.5086 15.8707 30.4462 15.8019 30.3822 15.7347C30.2867 15.6345 30.1848 15.539 30.075 15.4537L30.0729 15.4516C30.0277 15.4061 30.0147 15.3353 30.052 15.282C30.092 15.2239 30.164 15.1961 30.2312 15.2164C31.4312 15.5791 32.5779 16.8057 32.6899 18.3524L33.0856 30.0324C33.0958 30.4207 33.3544 30.7524 33.7203 30.8697L36.9256 31.6697C38.3603 32.0271 39.7523 30.9444 39.7523 29.4724V14.1657C39.7523 12.8644 38.867 11.7337 37.603 11.4191L28.483 9.14706C28.3038 9.10236 28.1251 9.07986 27.9496 9.07826L27.9469 9.067Z" fill="white"/>
</svg>
