<svg width="40" height="40" viewBox="0 0 40 40" fill="none" xmlns="http://www.w3.org/2000/svg">
<path d="M20.0007 34.1666H11.6673C6.66732 34.1666 3.33398 31.6666 3.33398 25.8333V14.1666C3.33398 8.33331 6.66732 5.83331 11.6673 5.83331H28.334C33.334 5.83331 36.6673 8.33331 36.6673 14.1666V19.1666" stroke="#0E80D4" stroke-width="2" stroke-miterlimit="10" stroke-linecap="round" stroke-linejoin="round"/>
<path d="M28.3327 15L23.116 19.1667C21.3993 20.5333 18.5827 20.5333 16.866 19.1667L11.666 15" stroke="#0E80D4" stroke-width="2" stroke-miterlimit="10" stroke-linecap="round" stroke-linejoin="round"/>
<path d="M32.017 24.6166L26.1171 30.5167C25.8837 30.75 25.667 31.1833 25.617 31.5L25.3004 33.75C25.1837 34.5667 25.7504 35.1333 26.5671 35.0167L28.8171 34.7C29.1337 34.65 29.5837 34.4333 29.8004 34.2L35.7004 28.3C36.7171 27.2833 37.2004 26.1 35.7004 24.6C34.2171 23.1167 33.0337 23.6 32.017 24.6166Z" stroke="#0E80D4" stroke-width="2" stroke-miterlimit="10" stroke-linecap="round" stroke-linejoin="round"/>
<path d="M31.168 25.4666C31.668 27.2666 33.068 28.6666 34.868 29.1666" stroke="#0E80D4" stroke-width="2" stroke-miterlimit="10" stroke-linecap="round" stroke-linejoin="round"/>
</svg>
