<svg width="40" height="40" viewBox="0 0 40 40" fill="none" xmlns="http://www.w3.org/2000/svg">
<path d="M20 23.3333H21.6667C23.5 23.3333 25 21.8333 25 19.9999V3.33325H10C7.5 3.33325 5.31668 4.71656 4.18335 6.7499" stroke="white" stroke-width="2" stroke-linecap="round" stroke-linejoin="round"/>
<path d="M3.33334 28.3333C3.33334 31.0999 5.56668 33.3333 8.33334 33.3333H10C10 31.4999 11.5 29.9999 13.3333 29.9999C15.1667 29.9999 16.6667 31.4999 16.6667 33.3333H23.3333C23.3333 31.4999 24.8333 29.9999 26.6667 29.9999C28.5 29.9999 30 31.4999 30 33.3333H31.6667C34.4333 33.3333 36.6667 31.0999 36.6667 28.3333V23.3333H31.6667C30.75 23.3333 30 22.5833 30 21.6666V16.6666C30 15.7499 30.75 14.9999 31.6667 14.9999H33.8166L30.9667 10.0166C30.3667 8.98327 29.2667 8.33325 28.0667 8.33325H25V19.9999C25 21.8333 23.5 23.3333 21.6667 23.3333H20" stroke="white" stroke-width="2" stroke-linecap="round" stroke-linejoin="round"/>
<path d="M13.3333 36.6667C15.1743 36.6667 16.6667 35.1743 16.6667 33.3333C16.6667 31.4924 15.1743 30 13.3333 30C11.4924 30 10 31.4924 10 33.3333C10 35.1743 11.4924 36.6667 13.3333 36.6667Z" stroke="white" stroke-width="2" stroke-linecap="round" stroke-linejoin="round"/>
<path d="M26.6667 36.6667C28.5076 36.6667 30 35.1743 30 33.3333C30 31.4924 28.5076 30 26.6667 30C24.8257 30 23.3333 31.4924 23.3333 33.3333C23.3333 35.1743 24.8257 36.6667 26.6667 36.6667Z" stroke="white" stroke-width="2" stroke-linecap="round" stroke-linejoin="round"/>
<path d="M36.6667 20V23.3333H31.6667C30.75 23.3333 30 22.5833 30 21.6667V16.6667C30 15.75 30.75 15 31.6667 15H33.8166L36.6667 20Z" stroke="white" stroke-width="2" stroke-linecap="round" stroke-linejoin="round"/>
<path d="M3.33334 13.3333H13.3333" stroke="white" stroke-width="2" stroke-linecap="round" stroke-linejoin="round"/>
<path d="M3.33334 18.3333H10" stroke="white" stroke-width="2" stroke-linecap="round" stroke-linejoin="round"/>
<path d="M3.33334 23.3333H6.66668" stroke="white" stroke-width="2" stroke-linecap="round" stroke-linejoin="round"/>
</svg>
