<svg width="40" height="40" viewBox="0 0 40 40" fill="none" xmlns="http://www.w3.org/2000/svg">
<path d="M19.1003 22.8833C21.6869 22.8833 23.7837 20.7865 23.7837 18.1999C23.7837 15.6134 21.6869 13.5166 19.1003 13.5166C16.5138 13.5166 14.417 15.6134 14.417 18.1999C14.417 20.7865 16.5138 22.8833 19.1003 22.8833Z" stroke="#0E80D4" stroke-width="2" stroke-linecap="round" stroke-linejoin="round"/>
<path d="M27.7502 33.6668C27.7502 29.7834 23.8835 26.6167 19.1002 26.6167C14.3169 26.6167 10.4502 29.7668 10.4502 33.6668" stroke="#0E80D4" stroke-width="2" stroke-linecap="round" stroke-linejoin="round"/>
<path d="M35.0002 20.8333C35.0002 29.5833 27.9168 36.6667 19.1668 36.6667C10.4168 36.6667 3.3335 29.5833 3.3335 20.8333C3.3335 12.0833 10.4168 5 19.1668 5C21.3502 5 23.4335 5.43332 25.3335 6.23332C25.1168 6.89998 25.0002 7.6 25.0002 8.33333C25.0002 9.58333 25.3502 10.7667 25.9668 11.7667C26.3002 12.3333 26.7335 12.85 27.2335 13.2833C28.4002 14.35 29.9502 15 31.6668 15C32.4002 15 33.1002 14.8833 33.7502 14.65C34.5502 16.55 35.0002 18.65 35.0002 20.8333Z" stroke="#0E80D4" stroke-width="2" stroke-linecap="round" stroke-linejoin="round"/>
<path d="M38.3333 8.33317C38.3333 8.8665 38.2667 9.38316 38.1333 9.88316C37.9833 10.5498 37.7167 11.1998 37.3667 11.7665C36.5667 13.1165 35.2833 14.1665 33.75 14.6498C33.1 14.8831 32.4 14.9998 31.6667 14.9998C29.95 14.9998 28.4 14.3498 27.2333 13.2831C26.7333 12.8498 26.3 12.3332 25.9667 11.7665C25.35 10.7665 25 9.58317 25 8.33317C25 7.59984 25.1167 6.89982 25.3333 6.23315C25.65 5.26649 26.1833 4.39987 26.8833 3.68321C28.1 2.43321 29.8 1.6665 31.6667 1.6665C33.6333 1.6665 35.4167 2.51653 36.6167 3.8832C37.6833 5.06653 38.3333 6.63317 38.3333 8.33317Z" stroke="#0E80D4" stroke-width="2" stroke-miterlimit="10" stroke-linecap="round" stroke-linejoin="round"/>
<path d="M34.1498 8.2998H29.1831" stroke="#0E80D4" stroke-width="2" stroke-miterlimit="10" stroke-linecap="round" stroke-linejoin="round"/>
<path d="M31.6665 5.8667V10.85" stroke="#0E80D4" stroke-width="2" stroke-miterlimit="10" stroke-linecap="round" stroke-linejoin="round"/>
</svg>
